<?xml version="1.0" encoding="utf-8" standalone="no"?>
<!DOCTYPE svg PUBLIC "-//W3C//DTD SVG 1.1//EN"
  "http://www.w3.org/Graphics/SVG/1.1/DTD/svg11.dtd">
<!-- Created with matplotlib (https://matplotlib.org/) -->
<svg height="432pt" version="1.1" viewBox="0 0 864 432" width="864pt" xmlns="http://www.w3.org/2000/svg" xmlns:xlink="http://www.w3.org/1999/xlink">
 <defs>
  <style type="text/css">
*{stroke-linecap:butt;stroke-linejoin:round;}
  </style>
 </defs>
 <g id="figure_1">
  <g id="patch_1">
   <path d="M 0 432 
L 864 432 
L 864 0 
L 0 0 
z
" style="fill:#ffffff;"/>
  </g>
  <g id="axes_1">
   <g id="patch_2">
    <path d="M 108 384.48 
L 777.6 384.48 
L 777.6 51.84 
L 108 51.84 
z
" style="fill:#ffffff;"/>
   </g>
   <g id="patch_3">
    <path clip-path="url(#p2529669070)" d="M 138.436364 384.48 
L 200.86993 384.48 
L 200.86993 115.596 
L 138.436364 115.596 
z
" style="fill:#1f77b4;"/>
   </g>
   <g id="patch_4">
    <path clip-path="url(#p2529669070)" d="M 216.478322 384.48 
L 278.911888 384.48 
L 278.911888 204.3 
L 216.478322 204.3 
z
" style="fill:#1f77b4;"/>
   </g>
   <g id="patch_5">
    <path clip-path="url(#p2529669070)" d="M 294.52028 384.48 
L 356.953846 384.48 
L 356.953846 223.704 
L 294.52028 223.704 
z
" style="fill:#1f77b4;"/>
   </g>
   <g id="patch_6">
    <path clip-path="url(#p2529669070)" d="M 372.562238 384.48 
L 434.995804 384.48 
L 434.995804 234.792 
L 372.562238 234.792 
z
" style="fill:#1f77b4;"/>
   </g>
   <g id="patch_7">
    <path clip-path="url(#p2529669070)" d="M 450.604196 384.48 
L 513.037762 384.48 
L 513.037762 245.88 
L 450.604196 245.88 
z
" style="fill:#1f77b4;"/>
   </g>
   <g id="patch_8">
    <path clip-path="url(#p2529669070)" d="M 528.646154 384.48 
L 591.07972 384.48 
L 591.07972 245.88 
L 528.646154 245.88 
z
" style="fill:#1f77b4;"/>
   </g>
   <g id="patch_9">
    <path clip-path="url(#p2529669070)" d="M 606.688112 384.48 
L 669.121678 384.48 
L 669.121678 254.196 
L 606.688112 254.196 
z
" style="fill:#1f77b4;"/>
   </g>
   <g id="patch_10">
    <path clip-path="url(#p2529669070)" d="M 684.73007 384.48 
L 747.163636 384.48 
L 747.163636 256.968 
L 684.73007 256.968 
z
" style="fill:#1f77b4;"/>
   </g>
   <g id="matplotlib.axis_1">
    <g id="xtick_1">
     <g id="line2d_1">
      <defs>
       <path d="M 0 0 
L 0 3.5 
" id="m53e4e6b241" style="stroke:#000000;stroke-width:0.8;"/>
      </defs>
      <g>
       <use style="stroke:#000000;stroke-width:0.8;" x="169.653147" xlink:href="#m53e4e6b241" y="384.48"/>
      </g>
     </g>
     <g id="text_1">
      <!-- 回形针PaperClip -->
      <defs>
       <path d="M 88.28125 75.78125 
Q 87.890625 64.453125 87.890625 53.90625 
L 87.890625 14.84375 
Q 87.890625 4.6875 88.28125 -5.859375 
L 80.46875 -5.859375 
L 80.46875 1.5625 
L 18.359375 1.5625 
L 18.359375 -5.859375 
L 10.9375 -5.859375 
Q 11.328125 3.90625 11.328125 14.84375 
L 11.328125 53.90625 
Q 11.328125 64.0625 10.9375 75.78125 
L 88.28125 75.78125 
z
M 80.46875 7.8125 
L 80.46875 69.140625 
L 18.75 69.140625 
L 18.75 7.8125 
z
M 67.578125 54.6875 
Q 67.1875 48.828125 67.1875 42.96875 
L 67.1875 33.984375 
Q 67.1875 28.90625 67.578125 21.875 
L 31.640625 21.875 
Q 32.03125 28.90625 32.03125 33.984375 
L 32.03125 43.75 
Q 32.03125 49.21875 31.640625 54.6875 
L 67.578125 54.6875 
z
M 59.765625 28.515625 
L 59.765625 48.4375 
L 39.0625 48.4375 
L 39.0625 28.515625 
z
" id="SimHei-22238"/>
       <path d="M 42.96875 75.78125 
Q 52.34375 75.78125 57.421875 76.171875 
L 57.421875 69.140625 
Q 53.125 69.53125 46.09375 69.53125 
L 46.09375 42.1875 
Q 54.296875 42.1875 58.203125 42.578125 
L 58.203125 35.15625 
Q 54.6875 35.546875 46.09375 35.546875 
L 46.09375 7.8125 
Q 46.09375 -0.78125 46.484375 -5.46875 
L 38.671875 -5.46875 
Q 39.0625 0 39.0625 7.421875 
L 39.0625 35.546875 
L 25.78125 35.546875 
Q 25 16.796875 20.703125 6.828125 
Q 16.40625 -3.125 12.890625 -7.8125 
Q 8.59375 -4.6875 4.6875 -3.90625 
Q 10.9375 2.34375 14.640625 11.90625 
Q 18.359375 21.484375 18.75 35.546875 
Q 12.109375 35.546875 6.640625 35.15625 
L 6.640625 42.578125 
Q 12.109375 42.1875 19.140625 42.1875 
L 19.140625 69.53125 
Q 12.5 69.53125 9.375 69.140625 
L 9.375 76.171875 
Q 12.5 75.78125 21.484375 75.78125 
z
M 95.3125 19.921875 
Q 91.40625 16.40625 80.46875 7.21875 
Q 69.53125 -1.953125 59.375 -8.203125 
Q 57.03125 -4.6875 53.125 -1.5625 
Q 63.28125 2.734375 73.828125 11.71875 
Q 84.375 20.703125 87.890625 25.78125 
Q 90.625 22.65625 95.3125 19.921875 
z
M 39.0625 42.1875 
L 39.0625 69.53125 
L 26.171875 69.53125 
L 26.171875 42.1875 
z
M 91.796875 46.484375 
Q 88.28125 44.140625 81.046875 35.9375 
Q 73.828125 27.734375 60.9375 18.359375 
Q 58.59375 21.484375 54.296875 24.21875 
Q 65.234375 30.46875 72.265625 37.6875 
Q 79.296875 44.921875 83.984375 51.953125 
Q 89.0625 47.65625 91.796875 46.484375 
z
M 88.671875 75 
Q 84.765625 71.484375 79.09375 63.859375 
Q 73.4375 56.25 63.671875 46.484375 
Q 60.15625 49.21875 56.640625 51.171875 
Q 65.234375 58.59375 69.921875 64.453125 
Q 74.609375 70.3125 80.078125 79.6875 
Q 82.03125 78.515625 88.671875 75 
z
" id="SimHei-24418"/>
       <path d="M 19.53125 -1.5625 
Q 22.265625 3.125 22.265625 8.59375 
L 22.265625 25 
L 16.796875 25 
Q 13.28125 25 7.421875 24.609375 
L 7.421875 32.03125 
Q 13.28125 31.640625 16.40625 31.640625 
L 22.265625 31.640625 
L 22.265625 42.578125 
Q 19.53125 42.578125 13.28125 42.1875 
L 13.28125 48.828125 
L 8.984375 43.359375 
Q 6.640625 46.09375 3.125 47.65625 
Q 13.28125 60.15625 17.1875 68.359375 
Q 21.09375 76.5625 22.65625 81.25 
Q 25.390625 79.296875 30.46875 77.734375 
Q 28.515625 75.78125 24.609375 68.75 
L 33.59375 68.75 
Q 39.84375 68.75 45.703125 69.140625 
L 45.703125 61.71875 
Q 39.84375 62.109375 33.59375 62.109375 
L 21.484375 62.109375 
Q 18.75 57.03125 13.28125 49.609375 
Q 19.140625 49.21875 24.609375 49.21875 
L 30.859375 49.21875 
Q 35.9375 49.21875 41.796875 49.609375 
L 41.796875 42.1875 
Q 34.375 42.578125 29.296875 42.578125 
L 29.296875 31.640625 
L 35.546875 31.640625 
Q 39.84375 31.640625 44.921875 32.03125 
L 44.921875 24.609375 
Q 38.671875 25 35.9375 25 
L 29.296875 25 
L 29.296875 5.46875 
Q 41.015625 13.671875 45.3125 17.1875 
Q 46.09375 13.671875 47.265625 9.375 
Q 42.96875 6.25 36.71875 1.953125 
Q 30.46875 -2.34375 25 -8.203125 
Q 21.875 -4.6875 19.53125 -1.5625 
z
M 66.015625 49.21875 
L 66.015625 68.359375 
Q 66.015625 71.484375 65.625 78.90625 
L 73.828125 78.90625 
Q 73.4375 73.828125 73.4375 68.359375 
L 73.4375 49.21875 
L 84.765625 49.21875 
Q 89.453125 49.21875 94.921875 49.609375 
L 94.921875 42.1875 
Q 89.0625 42.578125 85.15625 42.578125 
L 73.4375 42.578125 
L 73.4375 4.296875 
Q 73.4375 1.5625 73.828125 -8.203125 
L 65.625 -8.203125 
Q 66.015625 -1.5625 66.015625 3.90625 
L 66.015625 42.578125 
L 55.078125 42.578125 
Q 52.734375 42.578125 45.3125 42.1875 
L 45.3125 49.609375 
Q 50 49.21875 53.90625 49.21875 
z
" id="SimHei-38024"/>
       <path d="M 46.09375 48.4375 
Q 46.09375 39.0625 40.625 33.59375 
Q 35.15625 28.125 25.390625 28.125 
L 14.0625 28.125 
L 14.0625 1.953125 
L 5.078125 1.953125 
L 5.078125 68.75 
L 25.390625 68.75 
Q 35.15625 68.75 40.625 63.28125 
Q 46.09375 57.8125 46.09375 48.4375 
z
M 37.109375 48.4375 
Q 37.109375 55.859375 33.59375 58.59375 
Q 30.078125 61.328125 23.046875 61.328125 
L 14.0625 61.328125 
L 14.0625 35.546875 
L 23.046875 35.546875 
Q 30.078125 35.546875 33.59375 38.28125 
Q 37.109375 41.015625 37.109375 48.4375 
z
" id="SimHei-80"/>
       <path d="M 44.921875 1.953125 
L 35.546875 1.953125 
Q 34.765625 2.734375 34.375 4.09375 
Q 33.984375 5.46875 33.984375 7.421875 
Q 31.25 4.296875 27.34375 2.734375 
Q 23.4375 1.171875 19.140625 1.171875 
Q 12.890625 1.171875 8.59375 4.296875 
Q 4.296875 7.421875 4.296875 13.28125 
Q 4.296875 19.140625 8.203125 22.65625 
Q 12.109375 26.171875 20.3125 27.34375 
Q 25.78125 28.125 29.875 29.296875 
Q 33.984375 30.46875 33.984375 32.421875 
Q 33.984375 34.765625 32.21875 37.109375 
Q 30.46875 39.453125 24.609375 39.453125 
Q 19.921875 39.453125 17.765625 37.6875 
Q 15.625 35.9375 14.84375 32.8125 
L 6.25 32.8125 
Q 7.03125 39.0625 11.90625 42.765625 
Q 16.796875 46.484375 24.609375 46.484375 
Q 33.203125 46.484375 37.5 42.578125 
Q 41.796875 38.671875 41.796875 31.640625 
L 41.796875 10.15625 
Q 41.796875 7.8125 42.578125 5.859375 
Q 43.359375 3.90625 44.921875 1.953125 
z
M 33.984375 16.40625 
L 33.984375 24.21875 
Q 31.640625 23.4375 29.484375 22.84375 
Q 27.34375 22.265625 22.265625 21.484375 
Q 16.40625 20.703125 14.640625 18.75 
Q 12.890625 16.796875 12.890625 14.0625 
Q 12.890625 11.71875 14.640625 9.953125 
Q 16.40625 8.203125 19.921875 8.203125 
Q 23.4375 8.203125 27.53125 10.15625 
Q 31.640625 12.109375 33.984375 16.40625 
z
" id="SimHei-97"/>
       <path d="M 44.140625 23.828125 
Q 44.140625 12.5 38.671875 6.640625 
Q 33.203125 0.78125 25.390625 0.78125 
Q 21.09375 0.78125 17.96875 2.53125 
Q 14.84375 4.296875 12.5 7.8125 
L 12.5 -12.5 
L 4.6875 -12.5 
L 4.6875 45.703125 
L 12.5 45.703125 
L 12.5 39.84375 
Q 14.84375 43.359375 17.96875 44.921875 
Q 21.09375 46.484375 25.390625 46.484375 
Q 33.203125 46.484375 38.671875 40.8125 
Q 44.140625 35.15625 44.140625 23.828125 
z
M 35.546875 23.828125 
Q 35.546875 31.25 32.609375 35.34375 
Q 29.6875 39.453125 23.828125 39.453125 
Q 19.140625 39.453125 15.8125 35.34375 
Q 12.5 31.25 12.5 23.828125 
Q 12.5 16.40625 15.8125 12.109375 
Q 19.140625 7.8125 23.828125 7.8125 
Q 29.6875 7.8125 32.609375 12.109375 
Q 35.546875 16.40625 35.546875 23.828125 
z
" id="SimHei-112"/>
       <path d="M 44.53125 16.796875 
Q 43.75 9.765625 38.28125 5.46875 
Q 32.8125 1.171875 25.390625 1.171875 
Q 16.015625 1.171875 9.953125 7.21875 
Q 3.90625 13.28125 3.90625 23.828125 
Q 3.90625 34.375 9.953125 40.421875 
Q 16.015625 46.484375 25.390625 46.484375 
Q 33.59375 46.484375 38.859375 41.203125 
Q 44.140625 35.9375 44.140625 23.828125 
L 12.5 23.828125 
Q 12.5 15.234375 16.203125 11.71875 
Q 19.921875 8.203125 25.390625 8.203125 
Q 29.6875 8.203125 32.421875 10.34375 
Q 35.15625 12.5 35.9375 16.796875 
z
M 35.15625 30.078125 
Q 34.375 35.546875 31.640625 37.6875 
Q 28.90625 39.84375 24.609375 39.84375 
Q 20.703125 39.84375 17.578125 37.6875 
Q 14.453125 35.546875 12.890625 30.078125 
z
" id="SimHei-101"/>
       <path d="M 39.0625 37.890625 
Q 31.640625 39.0625 26.5625 35.734375 
Q 21.484375 32.421875 17.96875 24.21875 
L 17.96875 1.953125 
L 10.15625 1.953125 
L 10.15625 45.703125 
L 17.96875 45.703125 
L 17.96875 34.375 
Q 21.484375 40.625 26.75 43.546875 
Q 32.03125 46.484375 39.0625 46.484375 
z
" id="SimHei-114"/>
       <path d="M 46.484375 28.515625 
Q 46.09375 13.671875 40.234375 7.421875 
Q 34.375 1.171875 26.171875 1.171875 
Q 16.796875 1.171875 10.15625 8.78125 
Q 3.515625 16.40625 3.515625 33.203125 
Q 3.515625 51.5625 9.953125 60.546875 
Q 16.40625 69.53125 26.5625 69.53125 
Q 35.15625 69.53125 40.8125 63.078125 
Q 46.484375 56.640625 46.09375 44.921875 
L 37.5 44.921875 
Q 37.5 53.515625 34.765625 57.8125 
Q 32.03125 62.109375 26.5625 62.109375 
Q 20.3125 62.109375 16.59375 55.65625 
Q 12.890625 49.21875 12.890625 33.984375 
Q 12.890625 19.921875 16.59375 14.25 
Q 20.3125 8.59375 26.171875 8.59375 
Q 30.46875 8.59375 33.984375 12.6875 
Q 37.5 16.796875 37.5 28.515625 
z
" id="SimHei-67"/>
       <path d="M 28.515625 1.953125 
L 20.703125 1.953125 
L 20.703125 68.75 
L 28.515625 68.75 
z
" id="SimHei-108"/>
       <path d="M 28.125 58.203125 
L 20.3125 58.203125 
L 20.3125 68.359375 
L 28.125 68.359375 
z
M 28.125 1.953125 
L 20.3125 1.953125 
L 20.3125 45.703125 
L 28.125 45.703125 
z
" id="SimHei-105"/>
      </defs>
      <g transform="translate(132.153147 399.605)scale(0.1 -0.1)">
       <use xlink:href="#SimHei-22238"/>
       <use x="100" xlink:href="#SimHei-24418"/>
       <use x="200" xlink:href="#SimHei-38024"/>
       <use x="300" xlink:href="#SimHei-80"/>
       <use x="350" xlink:href="#SimHei-97"/>
       <use x="400" xlink:href="#SimHei-112"/>
       <use x="450" xlink:href="#SimHei-101"/>
       <use x="500" xlink:href="#SimHei-114"/>
       <use x="550" xlink:href="#SimHei-67"/>
       <use x="600" xlink:href="#SimHei-108"/>
       <use x="650" xlink:href="#SimHei-105"/>
       <use x="700" xlink:href="#SimHei-112"/>
      </g>
     </g>
    </g>
    <g id="xtick_2">
     <g id="line2d_2">
      <g>
       <use style="stroke:#000000;stroke-width:0.8;" x="247.695105" xlink:href="#m53e4e6b241" y="384.48"/>
      </g>
     </g>
     <g id="text_2">
      <!-- 【Aha Videos】 -->
      <defs>
       <path d="M 85.15625 -6.25 
L 49.21875 -6.25 
L 49.21875 78.515625 
L 85.546875 78.515625 
Q 65.625 57.03125 64.84375 36.90625 
Q 64.0625 16.796875 85.15625 -6.25 
z
" id="SimHei-12304"/>
       <path d="M 48.046875 1.953125 
L 38.671875 1.953125 
L 33.203125 22.65625 
L 16.015625 22.65625 
L 10.546875 1.953125 
L 1.171875 1.953125 
L 20.703125 69.53125 
L 28.515625 69.53125 
z
M 31.25 30.078125 
L 25 53.90625 
L 24.21875 53.90625 
L 17.96875 30.078125 
z
" id="SimHei-65"/>
       <path d="M 43.75 1.953125 
L 35.9375 1.953125 
L 35.9375 30.078125 
Q 35.9375 34.765625 33.59375 37.5 
Q 31.25 40.234375 27.34375 40.234375 
Q 22.265625 40.234375 17.765625 34.953125 
Q 13.28125 29.6875 13.28125 21.875 
L 13.28125 1.953125 
L 5.46875 1.953125 
L 5.46875 68.75 
L 13.28125 68.75 
L 13.28125 37.5 
Q 16.40625 41.796875 20.109375 44.140625 
Q 23.828125 46.484375 29.6875 46.484375 
Q 36.71875 46.484375 40.234375 42.578125 
Q 43.75 38.671875 43.75 32.8125 
z
" id="SimHei-104"/>
       <path id="SimHei-32"/>
       <path d="M 47.65625 68.75 
L 28.125 1.171875 
L 20.3125 1.171875 
L 0.78125 68.75 
L 10.15625 68.75 
L 23.828125 17.578125 
L 24.609375 17.578125 
L 38.28125 68.75 
z
" id="SimHei-86"/>
       <path d="M 42.96875 1.953125 
L 35.15625 1.953125 
L 35.15625 7.8125 
Q 32.8125 4.296875 29.6875 2.734375 
Q 26.5625 1.171875 22.265625 1.171875 
Q 14.453125 1.171875 8.984375 6.828125 
Q 3.515625 12.5 3.515625 23.828125 
Q 3.515625 35.15625 8.984375 41.015625 
Q 14.453125 46.875 22.265625 46.875 
Q 26.5625 46.875 29.6875 45.109375 
Q 32.8125 43.359375 35.15625 39.84375 
L 35.15625 68.75 
L 42.96875 68.75 
z
M 35.15625 23.828125 
Q 35.15625 31.25 31.828125 35.546875 
Q 28.515625 39.84375 23.828125 39.84375 
Q 17.96875 39.84375 15.03125 35.546875 
Q 12.109375 31.25 12.109375 23.828125 
Q 12.109375 16.40625 15.03125 12.296875 
Q 17.96875 8.203125 23.828125 8.203125 
Q 28.515625 8.203125 31.828125 12.296875 
Q 35.15625 16.40625 35.15625 23.828125 
z
" id="SimHei-100"/>
       <path d="M 45.703125 23.828125 
Q 45.703125 13.671875 39.453125 7.421875 
Q 33.203125 1.171875 24.609375 1.171875 
Q 16.015625 1.171875 9.765625 7.421875 
Q 3.515625 13.671875 3.515625 23.828125 
Q 3.515625 33.984375 9.765625 40.234375 
Q 16.015625 46.484375 24.609375 46.484375 
Q 33.203125 46.484375 39.453125 40.234375 
Q 45.703125 33.984375 45.703125 23.828125 
z
M 37.109375 23.828125 
Q 37.109375 31.640625 33.203125 35.546875 
Q 29.296875 39.453125 24.609375 39.453125 
Q 19.921875 39.453125 16.015625 35.546875 
Q 12.109375 31.640625 12.109375 23.828125 
Q 12.109375 16.015625 16.015625 12.109375 
Q 19.921875 8.203125 24.609375 8.203125 
Q 29.296875 8.203125 33.203125 12.109375 
Q 37.109375 16.015625 37.109375 23.828125 
z
" id="SimHei-111"/>
       <path d="M 42.96875 14.0625 
Q 42.96875 7.8125 38.078125 4.484375 
Q 33.203125 1.171875 25.78125 1.171875 
Q 16.40625 1.171875 11.328125 4.875 
Q 6.25 8.59375 6.25 15.625 
L 14.0625 15.625 
Q 14.0625 10.9375 17.375 9.375 
Q 20.703125 7.8125 25.390625 7.8125 
Q 30.078125 7.8125 32.421875 9.5625 
Q 34.765625 11.328125 34.765625 14.0625 
Q 34.765625 16.015625 32.8125 17.96875 
Q 30.859375 19.921875 23.046875 21.09375 
Q 14.0625 22.265625 10.734375 25.578125 
Q 7.421875 28.90625 7.421875 34.375 
Q 7.421875 39.0625 11.90625 42.765625 
Q 16.40625 46.484375 25 46.484375 
Q 32.8125 46.484375 37.296875 42.96875 
Q 41.796875 39.453125 41.796875 33.59375 
L 33.984375 33.59375 
Q 33.984375 37.109375 31.4375 38.46875 
Q 28.90625 39.84375 25 39.84375 
Q 19.921875 39.84375 17.765625 38.078125 
Q 15.625 36.328125 15.625 33.984375 
Q 15.625 31.25 17.578125 29.6875 
Q 19.53125 28.125 25.78125 27.34375 
Q 35.9375 25.78125 39.453125 22.453125 
Q 42.96875 19.140625 42.96875 14.0625 
z
" id="SimHei-115"/>
       <path d="M 14.0625 78.515625 
L 49.21875 78.515625 
L 49.21875 -6.25 
L 13.671875 -6.25 
Q 32.8125 16.015625 33.59375 35.734375 
Q 34.375 55.46875 14.0625 78.515625 
z
" id="SimHei-12305"/>
      </defs>
      <g transform="translate(212.695105 398.706563)scale(0.1 -0.1)">
       <use xlink:href="#SimHei-12304"/>
       <use x="100" xlink:href="#SimHei-65"/>
       <use x="150" xlink:href="#SimHei-104"/>
       <use x="200" xlink:href="#SimHei-97"/>
       <use x="250" xlink:href="#SimHei-32"/>
       <use x="300" xlink:href="#SimHei-86"/>
       <use x="350" xlink:href="#SimHei-105"/>
       <use x="400" xlink:href="#SimHei-100"/>
       <use x="450" xlink:href="#SimHei-101"/>
       <use x="500" xlink:href="#SimHei-111"/>
       <use x="550" xlink:href="#SimHei-115"/>
       <use x="600" xlink:href="#SimHei-12305"/>
      </g>
     </g>
    </g>
    <g id="xtick_3">
     <g id="line2d_3">
      <g>
       <use style="stroke:#000000;stroke-width:0.8;" x="325.737063" xlink:href="#m53e4e6b241" y="384.48"/>
      </g>
     </g>
     <g id="text_3">
      <!-- 义宁TV -->
      <defs>
       <path d="M 55.46875 18.359375 
Q 69.53125 5.859375 94.140625 -0.390625 
Q 90.234375 -4.6875 88.671875 -9.765625 
Q 66.796875 -2.734375 48.828125 12.5 
Q 35.15625 0 10.546875 -9.765625 
Q 8.203125 -5.078125 5.46875 -1.5625 
Q 27.34375 3.90625 43.359375 17.96875 
Q 29.296875 33.984375 17.96875 67.96875 
Q 20.703125 67.96875 25.390625 71.09375 
Q 35.546875 39.0625 49.609375 24.21875 
Q 64.0625 41.015625 73.046875 73.046875 
Q 78.90625 70.3125 82.03125 69.53125 
Q 79.296875 62.890625 72.453125 46.671875 
Q 65.625 30.46875 55.46875 18.359375 
z
M 46.484375 80.859375 
Q 53.515625 67.96875 57.421875 57.03125 
Q 52.734375 55.46875 49.609375 53.90625 
Q 45.703125 65.234375 39.453125 77.34375 
Q 42.96875 78.515625 46.484375 80.859375 
z
" id="SimHei-20041"/>
       <path d="M 34.765625 -0.78125 
Q 41.40625 -0.78125 44.328125 -0.578125 
Q 47.265625 -0.390625 47.265625 1.5625 
L 47.265625 35.546875 
L 22.265625 35.546875 
Q 17.96875 35.546875 8.203125 35.15625 
L 8.203125 42.578125 
Q 15.625 42.1875 23.046875 42.1875 
L 76.953125 42.1875 
Q 82.8125 42.1875 92.1875 42.578125 
L 92.1875 35.15625 
Q 82.8125 35.546875 76.953125 35.546875 
L 55.46875 35.546875 
L 55.46875 -0.390625 
Q 55.46875 -6.640625 50.96875 -7.609375 
Q 46.484375 -8.59375 37.5 -9.375 
Q 37.109375 -6.640625 34.765625 -0.78125 
z
M 92.96875 67.578125 
Q 92.578125 62.5 92.578125 57.421875 
Q 92.578125 52.734375 92.96875 48.828125 
L 84.375 48.828125 
L 84.375 60.546875 
L 17.1875 60.546875 
L 17.1875 49.609375 
L 7.8125 49.609375 
Q 8.203125 53.90625 8.203125 58.59375 
Q 8.203125 63.28125 7.8125 67.578125 
L 49.21875 67.578125 
Q 46.484375 74.609375 42.578125 78.90625 
Q 46.875 80.46875 50.78125 82.8125 
Q 53.515625 77.34375 57.8125 70.703125 
Q 54.296875 69.53125 51.171875 67.578125 
z
" id="SimHei-23425"/>
       <path d="M 44.53125 61.328125 
L 28.90625 61.328125 
L 28.90625 1.953125 
L 19.921875 1.953125 
L 19.921875 61.328125 
L 4.296875 61.328125 
L 4.296875 68.75 
L 44.53125 68.75 
z
" id="SimHei-84"/>
      </defs>
      <g transform="translate(310.737063 399.487813)scale(0.1 -0.1)">
       <use xlink:href="#SimHei-20041"/>
       <use x="100" xlink:href="#SimHei-23425"/>
       <use x="200" xlink:href="#SimHei-84"/>
       <use x="250" xlink:href="#SimHei-86"/>
      </g>
     </g>
    </g>
    <g id="xtick_4">
     <g id="line2d_4">
      <g>
       <use style="stroke:#000000;stroke-width:0.8;" x="403.779021" xlink:href="#m53e4e6b241" y="384.48"/>
      </g>
     </g>
     <g id="text_4">
      <!-- MaoMao TV -->
      <defs>
       <path d="M 45.703125 1.953125 
L 37.890625 1.953125 
L 37.890625 49.609375 
L 37.109375 49.609375 
L 27.734375 1.953125 
L 21.484375 1.953125 
L 12.109375 49.609375 
L 11.328125 49.609375 
L 11.328125 1.953125 
L 3.515625 1.953125 
L 3.515625 68.75 
L 15.625 68.75 
L 24.21875 24.609375 
L 25 24.609375 
L 33.59375 68.75 
L 45.703125 68.75 
z
" id="SimHei-77"/>
      </defs>
      <g transform="translate(381.279021 398.355)scale(0.1 -0.1)">
       <use xlink:href="#SimHei-77"/>
       <use x="50" xlink:href="#SimHei-97"/>
       <use x="100" xlink:href="#SimHei-111"/>
       <use x="150" xlink:href="#SimHei-77"/>
       <use x="200" xlink:href="#SimHei-97"/>
       <use x="250" xlink:href="#SimHei-111"/>
       <use x="300" xlink:href="#SimHei-32"/>
       <use x="350" xlink:href="#SimHei-84"/>
       <use x="400" xlink:href="#SimHei-86"/>
      </g>
     </g>
    </g>
    <g id="xtick_5">
     <g id="line2d_5">
      <g>
       <use style="stroke:#000000;stroke-width:0.8;" x="481.820979" xlink:href="#m53e4e6b241" y="384.48"/>
      </g>
     </g>
     <g id="text_5">
      <!-- Gamker攻壳官方频道 -->
      <defs>
       <path d="M 44.53125 1.171875 
L 37.890625 1.171875 
L 36.71875 6.640625 
Q 35.15625 4.296875 31.828125 2.734375 
Q 28.515625 1.171875 24.609375 1.171875 
Q 16.40625 1.171875 9.953125 8.78125 
Q 3.515625 16.40625 3.515625 33.203125 
Q 3.515625 51.5625 9.375 60.546875 
Q 15.234375 69.53125 25.390625 69.53125 
Q 34.375 69.53125 39.453125 62.890625 
Q 44.53125 56.25 44.53125 45.703125 
L 35.9375 45.703125 
Q 35.9375 53.90625 33.203125 58 
Q 30.46875 62.109375 25.390625 62.109375 
Q 19.140625 62.109375 16.015625 55.65625 
Q 12.890625 49.21875 12.890625 33.984375 
Q 12.890625 19.53125 16.796875 14.0625 
Q 20.703125 8.59375 25.78125 8.59375 
Q 30.859375 8.59375 33.78125 12.296875 
Q 36.71875 16.015625 36.71875 23.828125 
L 36.71875 28.125 
L 24.609375 28.125 
L 24.609375 35.546875 
L 44.53125 35.546875 
z
" id="SimHei-71"/>
       <path d="M 47.65625 1.953125 
L 39.84375 1.953125 
L 39.84375 33.59375 
Q 39.84375 35.9375 39.0625 37.5 
Q 38.28125 39.0625 35.9375 39.0625 
Q 33.203125 39.0625 30.859375 36.125 
Q 28.515625 33.203125 28.515625 28.515625 
L 28.515625 1.953125 
L 20.703125 1.953125 
L 20.703125 33.59375 
Q 20.703125 35.9375 19.921875 37.5 
Q 19.140625 39.0625 16.796875 39.0625 
Q 14.0625 39.0625 11.71875 36.125 
Q 9.375 33.203125 9.375 28.515625 
L 9.375 1.953125 
L 1.5625 1.953125 
L 1.5625 45.703125 
L 9.375 45.703125 
L 9.375 39.84375 
Q 11.328125 42.96875 14.0625 44.71875 
Q 16.796875 46.484375 19.921875 46.484375 
Q 23.046875 46.484375 25.1875 44.71875 
Q 27.34375 42.96875 28.125 39.84375 
Q 30.078125 42.96875 32.609375 44.71875 
Q 35.15625 46.484375 38.28125 46.484375 
Q 42.96875 46.484375 45.3125 43.9375 
Q 47.65625 41.40625 47.65625 36.71875 
z
" id="SimHei-109"/>
       <path d="M 45.703125 1.953125 
L 36.71875 1.953125 
L 22.65625 25.78125 
L 13.671875 17.1875 
L 13.671875 1.953125 
L 5.859375 1.953125 
L 5.859375 68.75 
L 13.671875 68.75 
L 13.671875 26.171875 
L 33.203125 45.703125 
L 42.96875 45.703125 
L 27.734375 30.859375 
z
" id="SimHei-107"/>
       <path d="M 49.21875 44.921875 
Q 46.875 39.0625 42.96875 33.984375 
Q 39.453125 37.109375 36.328125 38.28125 
Q 41.015625 43.75 46.28125 55.46875 
Q 51.5625 67.1875 55.078125 81.640625 
Q 58.59375 79.6875 63.671875 78.515625 
Q 62.5 76.953125 60.546875 72.265625 
L 56.640625 62.890625 
L 82.8125 62.890625 
Q 88.671875 62.890625 94.921875 63.28125 
L 94.921875 55.859375 
Q 87.5 56.25 83.984375 56.25 
Q 83.203125 46.484375 80.078125 34.765625 
Q 76.953125 23.046875 71.484375 14.453125 
Q 75 10.546875 81.25 6.25 
Q 87.5 1.953125 96.09375 -1.953125 
Q 92.96875 -4.296875 89.84375 -8.984375 
Q 85.546875 -6.25 79.09375 -1.5625 
Q 72.65625 3.125 66.796875 8.984375 
Q 59.375 2.34375 52.140625 -2.34375 
Q 44.921875 -7.03125 39.0625 -9.765625 
Q 37.109375 -5.859375 33.59375 -2.734375 
Q 40.625 -0.78125 48.625 3.90625 
Q 56.640625 8.59375 61.71875 14.453125 
Q 57.8125 21.09375 54.296875 29.484375 
Q 50.78125 37.890625 49.21875 44.921875 
z
M 44.140625 21.875 
Q 43.75 18.359375 44.140625 15.234375 
Q 29.296875 11.328125 21.09375 9.171875 
Q 12.890625 7.03125 7.03125 4.6875 
Q 5.46875 10.546875 3.90625 13.28125 
Q 13.28125 14.453125 21.484375 16.40625 
L 21.484375 60.15625 
Q 12.109375 60.15625 6.640625 59.765625 
L 6.640625 66.796875 
Q 12.890625 66.40625 18.359375 66.40625 
L 31.25 66.40625 
Q 36.71875 66.40625 43.359375 66.796875 
L 43.359375 59.765625 
Q 37.109375 60.15625 28.90625 60.15625 
L 28.90625 17.96875 
Q 36.328125 19.921875 44.140625 21.875 
z
M 66.796875 19.921875 
Q 70.703125 26.5625 73.234375 36.125 
Q 75.78125 45.703125 76.5625 56.25 
L 54.296875 56.25 
L 53.125 52.734375 
Q 54.6875 44.921875 59.171875 34.765625 
Q 63.671875 24.609375 66.796875 19.921875 
z
" id="SimHei-25915"/>
       <path d="M 45.703125 70.703125 
Q 45.703125 74.609375 45.3125 80.859375 
L 53.90625 80.859375 
Q 53.515625 75.390625 53.515625 70.703125 
L 75.78125 70.703125 
Q 82.8125 70.703125 91.015625 71.09375 
L 91.015625 64.0625 
Q 83.984375 64.453125 75.78125 64.453125 
L 53.515625 64.453125 
L 53.515625 54.6875 
L 70.703125 54.6875 
Q 76.953125 54.6875 83.984375 55.078125 
L 83.984375 47.65625 
Q 76.953125 48.046875 70.703125 48.046875 
L 30.859375 48.046875 
Q 23.046875 48.046875 15.234375 47.65625 
L 15.234375 55.078125 
Q 23.046875 54.6875 30.859375 54.6875 
L 45.703125 54.6875 
L 45.703125 64.453125 
L 25 64.453125 
Q 17.1875 64.453125 8.59375 64.0625 
L 8.59375 71.09375 
Q 17.1875 70.703125 25 70.703125 
z
M 68.75 28.125 
Q 68.359375 24.21875 68.359375 16.40625 
L 68.359375 7.03125 
Q 67.96875 -1.5625 71.875 -0.78125 
L 78.90625 -0.78125 
Q 82.421875 -0.78125 83.984375 1.75 
Q 85.546875 4.296875 86.328125 8.984375 
Q 89.84375 6.640625 94.140625 4.6875 
Q 92.96875 -0.78125 89.84375 -4.296875 
Q 86.71875 -7.8125 81.25 -7.8125 
L 67.1875 -7.8125 
Q 60.546875 -7.8125 60.546875 0 
L 60.546875 21.484375 
L 39.0625 21.484375 
Q 38.671875 3.515625 31.4375 -1.5625 
Q 24.21875 -6.640625 11.71875 -9.765625 
Q 10.546875 -5.078125 8.203125 -1.171875 
Q 23.828125 1.5625 27.34375 5.46875 
Q 30.859375 9.375 31.25 15.625 
Q 31.640625 21.875 31.640625 28.125 
L 68.75 28.125 
z
M 8.984375 35.15625 
Q 8.984375 38.28125 8.59375 41.796875 
L 91.40625 41.796875 
Q 91.015625 38.671875 91.015625 35.9375 
L 91.015625 30.46875 
Q 91.015625 28.125 91.40625 25.78125 
L 83.203125 25.78125 
L 83.203125 35.15625 
L 17.1875 35.15625 
L 17.1875 25 
L 8.59375 25 
Q 8.984375 26.5625 8.984375 29.296875 
z
" id="SimHei-22771"/>
       <path d="M 77.34375 53.125 
Q 76.953125 45.703125 76.953125 40.625 
Q 76.953125 35.9375 77.34375 30.078125 
L 30.859375 30.078125 
L 30.859375 20.703125 
L 82.03125 20.703125 
L 82.03125 5.859375 
Q 82.03125 -2.34375 82.421875 -9.765625 
L 73.828125 -9.765625 
L 73.828125 -3.90625 
L 31.25 -3.90625 
L 31.25 -9.765625 
L 22.265625 -9.765625 
Q 22.65625 -0.78125 22.65625 21.484375 
Q 22.65625 43.75 22.265625 53.125 
L 77.34375 53.125 
z
M 39.84375 78.90625 
Q 42.1875 80.46875 46.484375 83.203125 
Q 51.953125 76.953125 55.078125 71.875 
Q 50.78125 69.53125 48.4375 68.359375 
L 91.796875 68.359375 
Q 91.40625 62.890625 91.40625 60.15625 
Q 91.40625 57.421875 91.796875 52.734375 
L 83.59375 52.734375 
L 83.59375 62.109375 
L 16.015625 62.109375 
L 16.015625 52.734375 
L 7.8125 52.734375 
Q 8.203125 55.859375 8.203125 59.765625 
Q 8.203125 63.671875 7.8125 68.359375 
L 46.875 68.359375 
Q 43.75 74.21875 39.84375 78.90625 
z
M 73.828125 2.734375 
L 73.828125 14.453125 
L 30.859375 14.453125 
L 30.859375 2.734375 
z
M 69.140625 36.328125 
L 69.140625 46.484375 
L 30.859375 46.484375 
L 30.859375 36.328125 
z
" id="SimHei-23448"/>
       <path d="M 6.640625 62.109375 
Q 12.890625 61.71875 20.3125 61.71875 
L 78.515625 61.71875 
Q 87.890625 61.71875 93.75 62.109375 
L 93.75 54.296875 
Q 88.671875 54.6875 79.6875 54.6875 
L 39.453125 54.6875 
Q 39.453125 50.390625 39.0625 39.0625 
L 82.8125 39.0625 
Q 82.03125 33.984375 81.25 24.21875 
L 78.90625 2.734375 
Q 78.125 -4.296875 72.265625 -6.4375 
Q 66.40625 -8.59375 55.078125 -9.765625 
Q 54.6875 -4.6875 51.953125 -0.78125 
Q 60.9375 -1.171875 65.625 0 
Q 70.3125 1.171875 71.484375 6.640625 
L 73.828125 32.03125 
L 38.671875 32.03125 
Q 37.109375 21.09375 33.78125 13.671875 
Q 30.46875 6.25 24.609375 0 
Q 18.75 -6.25 12.890625 -10.9375 
Q 11.328125 -8.59375 5.859375 -5.46875 
Q 10.9375 -2.734375 16.59375 3.125 
Q 22.265625 8.984375 25.96875 16.40625 
Q 29.6875 23.828125 30.65625 32.8125 
Q 31.640625 41.796875 31.640625 54.6875 
L 20.703125 54.6875 
Q 12.109375 54.6875 6.640625 54.296875 
z
M 48.046875 63.671875 
Q 44.53125 71.484375 40.234375 78.125 
Q 43.75 80.078125 47.265625 82.421875 
Q 51.5625 75.78125 55.859375 67.96875 
Q 51.953125 66.40625 48.046875 63.671875 
z
" id="SimHei-26041"/>
       <path d="M 66.40625 69.53125 
Q 55.859375 69.53125 48.828125 69.140625 
L 48.828125 75.78125 
Q 55.46875 75.390625 61.328125 75.390625 
L 81.640625 75.390625 
Q 87.5 75.390625 93.75 75.78125 
L 93.75 69.140625 
Q 87.5 69.53125 73.4375 69.53125 
Q 72.265625 63.28125 71.09375 56.640625 
L 91.796875 56.640625 
Q 91.40625 51.171875 91.40625 45.3125 
L 91.40625 25.78125 
Q 91.40625 20.3125 91.796875 11.71875 
L 84.375 11.71875 
L 84.375 50.78125 
L 60.546875 50.78125 
L 60.546875 12.5 
L 53.125 12.5 
Q 53.515625 19.921875 53.515625 25.78125 
L 53.515625 44.140625 
Q 53.515625 51.171875 53.125 56.640625 
L 64.453125 56.640625 
Q 65.625 64.0625 66.40625 69.53125 
z
M 26.171875 42.96875 
Q 10.15625 42.96875 5.46875 42.578125 
L 5.46875 49.21875 
Q 8.59375 48.828125 11.328125 48.828125 
Q 11.328125 66.796875 10.9375 72.265625 
L 18.75 72.265625 
Q 18.359375 66.796875 18.359375 48.828125 
L 26.171875 48.828125 
L 26.171875 66.796875 
Q 26.171875 74.21875 25.78125 80.078125 
L 33.59375 80.078125 
Q 33.203125 74.21875 33.203125 66.40625 
Q 41.015625 66.40625 47.265625 66.796875 
L 47.265625 60.15625 
Q 41.015625 60.546875 33.203125 60.546875 
L 33.203125 48.828125 
Q 44.53125 48.828125 49.21875 49.21875 
L 49.21875 42.578125 
Q 44.53125 42.96875 33.203125 42.96875 
L 26.171875 42.96875 
z
M 33.59375 40.625 
Q 33.203125 35.15625 33.203125 30.078125 
L 33.203125 16.40625 
Q 40.625 25.78125 41.40625 34.375 
Q 44.921875 32.8125 49.609375 32.421875 
Q 44.53125 16.796875 34.171875 7.03125 
Q 23.828125 -2.734375 10.9375 -7.8125 
Q 8.59375 -3.90625 3.125 -1.171875 
Q 11.71875 1.171875 16.984375 3.703125 
Q 22.265625 6.25 26.171875 9.765625 
L 26.171875 29.6875 
Q 26.171875 35.15625 25.78125 40.625 
L 33.59375 40.625 
z
M 43.359375 -3.90625 
Q 53.125 -1.171875 58.390625 3.515625 
Q 63.671875 8.203125 65.8125 13.859375 
Q 67.96875 19.53125 68.15625 26.953125 
Q 68.359375 34.375 67.96875 42.96875 
Q 72.65625 42.1875 76.953125 41.40625 
Q 75.78125 36.328125 75.578125 30.859375 
Q 75.390625 25.390625 74.21875 17.375 
Q 73.046875 9.375 67.1875 2.53125 
Q 61.328125 -4.296875 50.78125 -10.15625 
Q 48.046875 -7.03125 43.359375 -3.90625 
z
M 91.40625 -10.15625 
Q 86.71875 -4.296875 75 3.90625 
Q 77.734375 6.640625 79.296875 9.375 
Q 91.015625 1.171875 96.875 -3.90625 
Q 93.359375 -6.640625 91.40625 -10.15625 
z
M 6.25 18.359375 
Q 10.15625 24.21875 14.0625 37.109375 
Q 17.578125 35.546875 21.484375 34.765625 
Q 15.625 20.703125 13.28125 16.015625 
Q 10.15625 17.96875 6.25 18.359375 
z
" id="SimHei-39057"/>
       <path d="M 30.859375 67.578125 
Q 36.71875 67.1875 66.40625 67.1875 
Q 69.53125 74.609375 72.265625 82.421875 
Q 77.34375 80.46875 80.859375 79.296875 
Q 78.125 76.5625 73.828125 67.1875 
Q 89.0625 67.1875 95.703125 67.578125 
L 95.703125 60.546875 
Q 89.0625 60.9375 66.015625 60.9375 
L 64.0625 53.125 
L 86.71875 53.125 
Q 86.328125 43.75 86.328125 28.515625 
Q 86.328125 13.671875 86.71875 6.25 
L 37.890625 6.25 
Q 38.671875 14.84375 38.671875 28.515625 
Q 38.671875 42.1875 38.28125 53.125 
L 55.859375 53.125 
L 57.8125 60.9375 
Q 36.71875 60.9375 30.859375 60.546875 
z
M 4.6875 44.140625 
Q 10.9375 43.75 15.625 43.75 
L 23.828125 43.75 
Q 23.4375 37.5 23.4375 30.46875 
L 23.4375 8.59375 
Q 33.59375 -0.78125 57.8125 -0.78125 
Q 82.421875 -0.78125 95.3125 1.171875 
Q 93.359375 -3.515625 92.1875 -8.203125 
Q 76.953125 -8.59375 65.8125 -8.390625 
Q 54.6875 -8.203125 47.265625 -7.421875 
Q 39.84375 -6.640625 35.15625 -4.875 
Q 30.46875 -3.125 25.578125 0.1875 
Q 20.703125 3.515625 17.578125 0.390625 
Q 14.453125 -2.734375 10.15625 -8.59375 
Q 6.640625 -5.078125 3.125 -2.734375 
Q 8.984375 1.171875 16.015625 8.203125 
L 16.015625 37.5 
Q 10.15625 37.5 4.6875 37.109375 
z
M 78.90625 12.5 
L 78.90625 20.3125 
L 46.484375 20.3125 
L 46.484375 12.5 
z
M 78.90625 26.171875 
L 78.90625 33.59375 
L 46.484375 33.59375 
L 46.484375 26.171875 
z
M 78.90625 39.453125 
L 78.90625 46.875 
L 46.484375 46.875 
L 46.484375 39.453125 
z
M 16.015625 57.421875 
Q 14.453125 64.453125 10.9375 75 
Q 15.625 75.78125 19.140625 77.34375 
Q 21.875 69.53125 24.21875 60.15625 
Q 20.3125 59.375 16.015625 57.421875 
z
M 47.265625 82.421875 
Q 52.34375 76.171875 55.46875 71.875 
Q 52.34375 69.921875 49.21875 67.578125 
Q 46.484375 72.265625 41.40625 78.125 
Q 44.140625 80.078125 47.265625 82.421875 
z
" id="SimHei-36947"/>
      </defs>
      <g transform="translate(436.820979 399.644063)scale(0.1 -0.1)">
       <use xlink:href="#SimHei-71"/>
       <use x="50" xlink:href="#SimHei-97"/>
       <use x="100" xlink:href="#SimHei-109"/>
       <use x="150" xlink:href="#SimHei-107"/>
       <use x="200" xlink:href="#SimHei-101"/>
       <use x="250" xlink:href="#SimHei-114"/>
       <use x="300" xlink:href="#SimHei-25915"/>
       <use x="400" xlink:href="#SimHei-22771"/>
       <use x="500" xlink:href="#SimHei-23448"/>
       <use x="600" xlink:href="#SimHei-26041"/>
       <use x="700" xlink:href="#SimHei-39057"/>
       <use x="800" xlink:href="#SimHei-36947"/>
      </g>
     </g>
    </g>
    <g id="xtick_6">
     <g id="line2d_6">
      <g>
       <use style="stroke:#000000;stroke-width:0.8;" x="559.862937" xlink:href="#m53e4e6b241" y="384.48"/>
      </g>
     </g>
     <g id="text_6">
      <!-- Xiao Pi Hai小屁孩 -->
      <defs>
       <path d="M 46.875 1.953125 
L 37.5 1.953125 
L 24.21875 29.296875 
L 10.9375 1.953125 
L 1.5625 1.953125 
L 19.921875 37.109375 
L 3.515625 68.75 
L 12.890625 68.75 
L 24.21875 44.53125 
L 35.546875 68.75 
L 44.921875 68.75 
L 28.515625 37.109375 
z
" id="SimHei-88"/>
       <path d="M 44.53125 1.953125 
L 35.546875 1.953125 
L 35.546875 33.203125 
L 13.28125 33.203125 
L 13.28125 1.953125 
L 4.296875 1.953125 
L 4.296875 68.75 
L 13.28125 68.75 
L 13.28125 40.625 
L 35.546875 40.625 
L 35.546875 68.75 
L 44.53125 68.75 
z
" id="SimHei-72"/>
       <path d="M 54.6875 80.46875 
Q 54.296875 75 54.296875 65.625 
L 54.296875 2.734375 
Q 54.296875 -4.6875 50.390625 -6.640625 
Q 46.484375 -8.59375 37.109375 -9.375 
Q 36.328125 -4.6875 33.59375 -0.390625 
Q 42.1875 -0.390625 44.328125 0 
Q 46.484375 0.390625 46.484375 4.6875 
L 46.484375 65.625 
Q 46.484375 72.65625 46.09375 80.46875 
L 54.6875 80.46875 
z
M 32.421875 53.125 
Q 28.90625 43.359375 24.21875 30.65625 
Q 19.53125 17.96875 16.015625 11.71875 
Q 12.109375 14.84375 7.8125 15.625 
Q 14.453125 27.34375 18.359375 38.859375 
Q 22.265625 50.390625 23.4375 55.859375 
Q 28.125 53.515625 32.421875 53.125 
z
M 73.046875 56.25 
Q 88.671875 28.125 91.796875 17.96875 
Q 87.890625 17.1875 83.984375 14.453125 
Q 78.125 31.25 66.015625 51.953125 
Q 69.140625 53.515625 73.046875 56.25 
z
" id="SimHei-23567"/>
       <path d="M 85.9375 77.34375 
Q 85.546875 71.09375 85.546875 64.84375 
Q 85.546875 58.984375 85.9375 51.5625 
L 22.65625 51.5625 
Q 22.65625 40.625 21.875 30.265625 
Q 21.09375 19.921875 17.96875 8.78125 
Q 14.84375 -2.34375 11.328125 -8.984375 
Q 8.203125 -5.46875 3.125 -4.296875 
Q 10.15625 5.859375 12.6875 17.765625 
Q 15.234375 29.6875 15.234375 47.65625 
Q 15.234375 65.625 14.84375 77.34375 
z
M 69.53125 47.265625 
Q 68.75 41.796875 68.75 36.328125 
L 68.75 26.953125 
Q 80.859375 32.421875 86.328125 38.28125 
Q 88.28125 34.375 92.1875 30.46875 
Q 87.109375 28.90625 68.75 19.921875 
L 68.75 6.25 
Q 67.96875 0.390625 72.65625 0.390625 
L 82.03125 0.390625 
Q 84.375 -0.390625 85.34375 2.734375 
Q 86.328125 5.859375 85.9375 9.765625 
Q 90.625 7.03125 94.921875 6.640625 
Q 92.578125 -6.640625 85.546875 -6.640625 
L 69.140625 -6.640625 
Q 61.71875 -6.25 61.71875 3.125 
L 61.71875 35.9375 
Q 61.71875 41.796875 61.328125 47.265625 
z
M 78.515625 58.203125 
L 78.515625 70.703125 
L 22.65625 70.703125 
L 22.65625 58.203125 
z
M 28.90625 -1.953125 
Q 31.640625 0.78125 31.25 4.6875 
L 31.25 34.765625 
Q 31.25 39.84375 30.859375 46.484375 
L 38.671875 46.484375 
Q 38.28125 40.625 38.28125 32.03125 
Q 47.65625 32.03125 54.296875 32.421875 
L 54.296875 25 
Q 47.65625 25.390625 38.28125 25.390625 
L 38.28125 3.515625 
Q 46.484375 8.59375 51.5625 13.28125 
Q 52.34375 9.375 54.296875 5.078125 
Q 51.171875 3.90625 45.3125 -0.1875 
Q 39.453125 -4.296875 33.984375 -8.59375 
Q 31.640625 -5.078125 28.90625 -1.953125 
z
" id="SimHei-23617"/>
       <path d="M 48.046875 57.421875 
Q 43.75 57.421875 39.453125 57.03125 
L 39.453125 64.0625 
Q 45.703125 63.671875 51.5625 63.671875 
L 81.640625 63.671875 
Q 86.71875 63.671875 93.359375 64.0625 
L 93.359375 57.03125 
Q 86.71875 57.421875 81.640625 57.421875 
L 66.015625 57.421875 
Q 61.71875 50.390625 58.984375 46.484375 
Q 56.25 42.578125 52.734375 38.671875 
Q 59.375 38.671875 68.359375 39.0625 
Q 73.828125 45.703125 76.953125 51.171875 
Q 80.46875 48.4375 83.984375 46.484375 
Q 80.46875 42.578125 73.046875 33.59375 
Q 65.625 24.609375 58.59375 18.9375 
Q 51.5625 13.28125 41.796875 7.8125 
Q 39.84375 10.9375 36.328125 14.0625 
Q 44.53125 17.1875 51.5625 22.265625 
Q 58.59375 27.34375 63.671875 33.203125 
Q 52.34375 32.8125 44.53125 30.46875 
Q 43.359375 34.375 41.40625 38.28125 
Q 44.53125 39.0625 48.046875 42.96875 
Q 51.5625 46.875 57.03125 57.421875 
L 48.046875 57.421875 
z
M 37.890625 63.671875 
Q 32.421875 58.59375 26.171875 51.953125 
L 26.171875 35.15625 
Q 30.46875 37.109375 35.546875 39.84375 
Q 35.15625 36.328125 35.9375 32.421875 
Q 29.6875 29.6875 26.171875 28.125 
L 26.171875 1.171875 
Q 26.171875 -5.46875 21.484375 -7.21875 
Q 16.796875 -8.984375 11.328125 -9.765625 
Q 10.546875 -4.6875 8.203125 -1.171875 
Q 15.625 -1.171875 17.375 -0.390625 
Q 19.140625 0.390625 19.140625 3.515625 
L 19.140625 24.609375 
Q 12.890625 21.875 7.421875 18.75 
Q 5.859375 24.21875 4.6875 27.34375 
Q 15.234375 30.859375 19.140625 32.421875 
L 19.140625 43.75 
Q 19.140625 48.4375 17.96875 52.734375 
Q 22.265625 56.25 28.90625 64.0625 
L 18.75 64.0625 
Q 13.28125 64.0625 5.859375 63.671875 
L 5.859375 71.09375 
Q 13.28125 70.703125 18.75 70.703125 
L 37.890625 70.703125 
z
M 93.359375 28.90625 
Q 89.84375 25.78125 86.515625 22.0625 
Q 83.203125 18.359375 77.734375 12.890625 
Q 86.71875 5.46875 95.3125 -3.90625 
Q 91.796875 -5.859375 88.671875 -9.375 
Q 83.59375 -1.953125 73.046875 8.203125 
Q 66.796875 3.125 59.765625 -1.171875 
Q 52.734375 -5.46875 41.40625 -10.546875 
Q 40.234375 -8.203125 36.328125 -3.90625 
Q 47.265625 -1.5625 61.71875 8.78125 
Q 76.171875 19.140625 86.328125 34.375 
Q 90.234375 30.859375 93.359375 28.90625 
z
M 62.5 81.640625 
Q 67.96875 75 72.265625 68.359375 
Q 69.140625 66.796875 65.234375 64.0625 
Q 61.71875 71.484375 56.640625 78.125 
Q 60.546875 80.078125 62.5 81.640625 
z
" id="SimHei-23401"/>
      </defs>
      <g transform="translate(517.362937 399.44875)scale(0.1 -0.1)">
       <use xlink:href="#SimHei-88"/>
       <use x="50" xlink:href="#SimHei-105"/>
       <use x="100" xlink:href="#SimHei-97"/>
       <use x="150" xlink:href="#SimHei-111"/>
       <use x="200" xlink:href="#SimHei-32"/>
       <use x="250" xlink:href="#SimHei-80"/>
       <use x="300" xlink:href="#SimHei-105"/>
       <use x="350" xlink:href="#SimHei-32"/>
       <use x="400" xlink:href="#SimHei-72"/>
       <use x="450" xlink:href="#SimHei-97"/>
       <use x="500" xlink:href="#SimHei-105"/>
       <use x="550" xlink:href="#SimHei-23567"/>
       <use x="650" xlink:href="#SimHei-23617"/>
       <use x="750" xlink:href="#SimHei-23401"/>
      </g>
     </g>
    </g>
    <g id="xtick_7">
     <g id="line2d_7">
      <g>
       <use style="stroke:#000000;stroke-width:0.8;" x="637.904895" xlink:href="#m53e4e6b241" y="384.48"/>
      </g>
     </g>
     <g id="text_7">
      <!-- 看电影了没 -->
      <defs>
       <path d="M 89.84375 73.4375 
Q 81.640625 73.4375 71.484375 72.453125 
Q 61.328125 71.484375 50.390625 71.09375 
Q 49.609375 66.796875 48.828125 63.28125 
L 70.703125 63.28125 
Q 76.953125 63.28125 85.15625 63.671875 
L 85.15625 57.03125 
Q 76.953125 57.421875 70.703125 57.421875 
L 47.265625 57.421875 
Q 46.09375 53.90625 44.140625 50 
L 78.125 50 
Q 87.109375 50 95.703125 50.78125 
L 95.703125 43.75 
Q 85.9375 44.140625 78.125 44.140625 
L 42.1875 44.140625 
Q 39.453125 39.453125 37.5 37.109375 
L 84.375 37.109375 
Q 83.984375 30.46875 83.984375 22.65625 
L 83.984375 4.6875 
Q 83.984375 -1.5625 84.375 -10.15625 
L 76.5625 -10.15625 
L 76.5625 -4.6875 
L 35.15625 -4.6875 
L 35.15625 -10.15625 
L 27.34375 -10.15625 
Q 27.734375 -3.125 27.734375 3.515625 
L 27.734375 26.953125 
Q 21.484375 19.921875 9.765625 12.109375 
Q 6.640625 16.40625 3.515625 18.75 
Q 12.109375 22.65625 20.5 29.6875 
Q 28.90625 36.71875 33.59375 44.140625 
L 18.75 44.140625 
Q 11.71875 44.140625 5.46875 43.75 
L 5.46875 50.390625 
Q 12.109375 50 18.75 50 
L 36.71875 50 
Q 38.28125 53.515625 39.453125 57.421875 
L 29.296875 57.421875 
Q 23.4375 57.421875 16.796875 57.03125 
L 16.796875 63.671875 
Q 23.4375 63.28125 29.296875 63.28125 
L 41.015625 63.28125 
Q 41.796875 67.578125 42.1875 70.3125 
Q 37.109375 70.3125 29.875 69.921875 
Q 22.65625 69.53125 14.0625 68.75 
Q 12.890625 71.875 10.9375 76.171875 
Q 21.875 75.78125 45.5 76.953125 
Q 69.140625 78.125 84.375 81.640625 
Q 86.71875 77.734375 89.84375 73.4375 
z
M 76.5625 1.5625 
L 76.5625 7.8125 
L 35.15625 7.8125 
L 35.15625 1.5625 
z
M 76.5625 13.28125 
L 76.5625 19.53125 
L 35.15625 19.53125 
L 35.15625 13.28125 
z
M 76.5625 25.390625 
L 76.5625 31.25 
L 35.15625 31.25 
L 35.15625 25.390625 
z
" id="SimHei-30475"/>
       <path d="M 96.09375 5.078125 
Q 93.359375 -3.90625 91.015625 -6.4375 
Q 88.671875 -8.984375 83.203125 -8.984375 
L 52.734375 -8.984375 
Q 42.1875 -9.375 41.796875 1.5625 
L 41.796875 15.234375 
L 19.140625 15.234375 
L 19.140625 7.8125 
L 10.15625 7.8125 
Q 10.546875 11.71875 10.546875 34.765625 
Q 10.546875 57.8125 10.15625 64.84375 
L 41.796875 64.84375 
Q 41.796875 75.390625 41.40625 81.25 
L 50 81.25 
Q 49.609375 76.171875 49.609375 64.84375 
L 81.25 64.84375 
Q 80.859375 58.984375 80.859375 40.625 
Q 80.859375 22.65625 81.25 15.234375 
L 49.609375 15.234375 
L 49.609375 4.6875 
Q 49.609375 -2.34375 57.03125 -2.34375 
L 77.734375 -2.34375 
Q 83.984375 -2.34375 85.15625 0.390625 
Q 86.328125 3.125 87.109375 8.984375 
Q 91.015625 6.25 96.09375 5.078125 
z
M 73.046875 21.875 
L 73.046875 37.5 
L 49.609375 37.5 
L 49.609375 21.875 
z
M 41.796875 21.875 
L 41.796875 37.5 
L 19.140625 37.5 
L 19.140625 21.875 
z
M 73.046875 43.75 
L 73.046875 58.203125 
L 49.609375 58.203125 
L 49.609375 43.75 
z
M 41.796875 43.75 
L 41.796875 58.203125 
L 19.140625 58.203125 
L 19.140625 43.75 
z
" id="SimHei-30005"/>
       <path d="M 55.46875 78.515625 
Q 54.6875 72.265625 54.875 65.421875 
Q 55.078125 58.59375 55.46875 51.953125 
L 12.109375 51.953125 
Q 12.5 58.59375 12.296875 65.421875 
Q 12.109375 72.265625 12.109375 78.515625 
L 55.46875 78.515625 
z
M 22.65625 -1.5625 
Q 32.03125 -1.171875 30.859375 3.125 
L 30.859375 17.1875 
L 12.109375 17.1875 
Q 12.5 21.484375 12.296875 25.78125 
Q 12.109375 30.078125 12.109375 34.765625 
L 55.46875 34.765625 
Q 55.078125 30.078125 54.875 25.78125 
Q 54.6875 21.484375 55.46875 17.1875 
L 38.671875 17.1875 
L 38.671875 2.734375 
Q 39.0625 -3.90625 35.9375 -5.859375 
Q 32.8125 -7.8125 25.390625 -9.375 
Q 24.609375 -5.078125 22.65625 -1.5625 
z
M 37.109375 50.78125 
Q 37.5 48.046875 37.890625 44.921875 
L 49.609375 44.921875 
Q 56.25 44.921875 63.28125 45.3125 
L 63.28125 38.671875 
Q 56.25 39.0625 49.609375 39.0625 
L 18.75 39.0625 
Q 10.9375 39.0625 4.296875 38.671875 
L 4.296875 45.3125 
Q 10.9375 44.921875 18.75 44.921875 
L 29.6875 44.921875 
Q 29.296875 47.265625 28.90625 50 
Q 32.8125 50.78125 37.109375 50.78125 
z
M 96.09375 21.09375 
Q 88.671875 12.109375 78.125 3.515625 
Q 67.578125 -5.078125 58.203125 -10.15625 
Q 55.859375 -6.25 53.125 -3.90625 
Q 62.109375 0.390625 71.875 7.8125 
Q 81.640625 15.234375 90.234375 26.953125 
Q 92.96875 23.828125 96.09375 21.09375 
z
M 92.578125 48.828125 
Q 87.890625 44.53125 81.4375 36.90625 
Q 75 29.296875 65.625 22.265625 
Q 62.890625 25.390625 59.375 26.953125 
Q 68.359375 32.03125 74.796875 39.453125 
Q 81.25 46.875 86.328125 54.6875 
Q 88.671875 51.953125 92.578125 48.828125 
z
M 89.453125 75.390625 
Q 83.203125 71.09375 78.703125 65.03125 
Q 74.21875 58.984375 65.234375 51.171875 
Q 62.109375 53.90625 59.375 55.46875 
Q 65.234375 59.765625 71.09375 66.203125 
Q 76.953125 72.65625 81.640625 80.859375 
Q 84.765625 78.125 89.453125 75.390625 
z
M 48.046875 23.046875 
L 48.046875 28.90625 
L 19.53125 28.90625 
L 19.53125 23.046875 
z
M 48.046875 57.8125 
L 48.046875 62.5 
L 19.53125 62.5 
L 19.53125 57.8125 
z
M 48.046875 68.359375 
L 48.046875 73.046875 
L 19.53125 73.046875 
L 19.53125 68.359375 
z
M 23.4375 7.8125 
Q 16.796875 1.171875 8.984375 -5.078125 
Q 7.421875 -2.734375 4.296875 -0.390625 
Q 10.9375 3.90625 17.578125 12.890625 
Q 20.3125 9.765625 23.4375 7.8125 
z
M 50.78125 -0.78125 
Q 47.65625 4.296875 42.96875 8.59375 
Q 45.3125 10.9375 48.046875 13.28125 
Q 53.125 8.203125 56.25 3.90625 
L 50.78125 -0.78125 
z
" id="SimHei-24433"/>
       <path d="M 87.5 75 
L 87.5 66.40625 
Q 83.203125 64.84375 71.484375 57.03125 
Q 59.765625 49.21875 54.6875 45.3125 
L 54.6875 0.78125 
Q 54.296875 -5.859375 47.84375 -7.609375 
Q 41.40625 -9.375 34.765625 -10.15625 
Q 32.8125 -1.953125 30.859375 0.78125 
Q 40.625 0.390625 43.359375 0.96875 
Q 46.09375 1.5625 46.09375 6.25 
L 46.09375 37.5 
Q 46.09375 46.484375 44.921875 50 
Q 51.5625 52.734375 73.828125 67.96875 
L 32.421875 67.96875 
Q 23.046875 67.578125 14.453125 67.578125 
L 14.453125 75.390625 
Q 23.046875 75 28.515625 75 
z
" id="SimHei-20102"/>
       <path d="M 85.15625 37.109375 
Q 82.8125 30.46875 78.703125 23.046875 
Q 74.609375 15.625 68.359375 8.984375 
Q 72.65625 5.859375 81.046875 2.53125 
Q 89.453125 -0.78125 94.140625 -1.5625 
Q 91.40625 -4.6875 89.0625 -9.375 
Q 80.859375 -6.25 74.796875 -3.125 
Q 68.75 0 62.890625 4.296875 
Q 51.953125 -3.90625 34.375 -9.375 
Q 33.203125 -5.46875 29.6875 -1.5625 
Q 45.703125 0.78125 57.421875 8.59375 
Q 47.65625 17.578125 42.96875 30.859375 
Q 40.625 30.859375 37.890625 30.859375 
L 37.890625 37.5 
Q 44.921875 37.109375 51.171875 37.109375 
z
M 78.515625 75.78125 
Q 78.125 69.921875 78.125 64.0625 
L 78.125 53.90625 
Q 78.125 50.390625 83.59375 50.390625 
L 94.53125 50.78125 
Q 92.1875 46.484375 92.578125 43.75 
L 78.90625 43.75 
Q 71.484375 43.75 70.703125 51.171875 
L 70.703125 69.53125 
L 51.171875 69.53125 
Q 51.171875 58.59375 48.4375 52.140625 
Q 45.703125 45.703125 37.109375 38.671875 
Q 35.546875 41.40625 31.25 44.53125 
Q 41.40625 49.609375 42.96875 58.203125 
Q 44.53125 66.796875 43.75 75.78125 
L 78.515625 75.78125 
z
M 6.640625 -2.34375 
Q 12.5 5.078125 17.375 14.453125 
Q 22.265625 23.828125 25 31.640625 
Q 28.515625 28.90625 32.03125 26.5625 
Q 29.296875 22.65625 24.21875 12.109375 
Q 19.140625 1.5625 14.84375 -7.8125 
Q 10.15625 -3.90625 6.640625 -2.34375 
z
M 50.78125 31.25 
Q 54.296875 20.703125 62.890625 12.890625 
Q 69.921875 19.53125 74.609375 31.25 
L 51.171875 31.25 
z
M 17.96875 80.078125 
Q 26.5625 74.21875 36.328125 66.015625 
Q 32.421875 63.28125 30.46875 60.15625 
Q 21.875 68.359375 12.890625 74.21875 
Q 15.625 76.953125 17.96875 80.078125 
z
M 11.328125 58.59375 
Q 19.921875 52.34375 28.515625 44.921875 
Q 25.78125 42.578125 22.65625 39.0625 
Q 15.625 46.484375 6.25 52.34375 
Q 9.375 55.859375 11.328125 58.59375 
z
" id="SimHei-27809"/>
      </defs>
      <g transform="translate(612.904895 399.409688)scale(0.1 -0.1)">
       <use xlink:href="#SimHei-30475"/>
       <use x="100" xlink:href="#SimHei-30005"/>
       <use x="200" xlink:href="#SimHei-24433"/>
       <use x="300" xlink:href="#SimHei-20102"/>
       <use x="400" xlink:href="#SimHei-27809"/>
      </g>
     </g>
    </g>
    <g id="xtick_8">
     <g id="line2d_8">
      <g>
       <use style="stroke:#000000;stroke-width:0.8;" x="715.946853" xlink:href="#m53e4e6b241" y="384.48"/>
      </g>
     </g>
     <g id="text_8">
      <!-- 李永乐老师 -->
      <defs>
       <path d="M 53.90625 81.640625 
Q 53.515625 78.90625 53.515625 75.390625 
L 53.515625 70.703125 
L 78.90625 70.703125 
Q 83.59375 70.703125 91.796875 71.09375 
L 91.796875 63.671875 
Q 84.375 64.453125 78.90625 64.453125 
L 62.5 64.453125 
Q 66.796875 57.8125 72.0625 54.296875 
Q 77.34375 50.78125 83 49.015625 
Q 88.671875 47.265625 95.3125 46.09375 
Q 92.1875 41.796875 90.625 38.28125 
Q 80.859375 40.234375 71.28125 46.671875 
Q 61.71875 53.125 55.078125 64.453125 
L 53.515625 64.453125 
L 53.515625 55.078125 
Q 53.515625 49.21875 53.90625 42.1875 
L 44.921875 42.1875 
Q 45.703125 49.21875 45.703125 55.078125 
L 45.703125 63.28125 
Q 38.671875 54.6875 33.203125 50 
Q 27.734375 45.3125 22.84375 42.1875 
Q 17.96875 39.0625 9.375 34.765625 
Q 8.203125 38.671875 4.296875 42.578125 
Q 25 49.609375 37.890625 64.453125 
L 22.65625 64.453125 
Q 17.96875 64.453125 8.984375 63.671875 
L 8.984375 71.09375 
Q 16.40625 70.703125 22.265625 70.703125 
L 45.703125 70.703125 
L 45.703125 75.390625 
Q 45.3125 78.90625 44.921875 81.640625 
z
M 32.8125 34.765625 
Q 26.171875 34.765625 21.875 33.984375 
L 21.875 41.015625 
Q 26.171875 40.625 32.421875 40.625 
L 76.953125 40.625 
L 76.953125 35.546875 
Q 57.421875 26.171875 53.125 23.4375 
L 53.125 20.3125 
L 74.609375 20.3125 
Q 82.03125 20.3125 92.96875 21.09375 
L 92.96875 14.0625 
Q 82.03125 14.453125 74.609375 14.453125 
L 53.125 14.453125 
L 53.125 0 
Q 53.125 -5.859375 50 -7.8125 
Q 46.875 -9.765625 35.9375 -10.546875 
Q 35.15625 -5.859375 33.203125 -1.5625 
Q 41.015625 -1.953125 43.359375 -1.5625 
Q 45.703125 -1.171875 45.3125 2.34375 
L 45.3125 14.453125 
L 20.3125 14.453125 
Q 12.5 14.453125 5.859375 14.0625 
L 5.859375 20.703125 
Q 12.5 20.3125 20.3125 20.3125 
L 45.3125 20.3125 
Q 45.3125 22.265625 44.921875 26.953125 
Q 48.828125 28.125 60.9375 34.765625 
z
" id="SimHei-26446"/>
       <path d="M 91.40625 44.921875 
Q 85.9375 41.796875 80.078125 37.5 
Q 74.21875 33.203125 68.359375 28.125 
Q 72.265625 21.875 79.09375 15.421875 
Q 85.9375 8.984375 96.484375 4.6875 
Q 91.015625 1.171875 89.453125 -3.125 
Q 78.515625 4.296875 70.890625 12.296875 
Q 63.28125 20.3125 56.640625 34.375 
L 56.640625 0 
Q 56.640625 -5.078125 52.53125 -7.21875 
Q 48.4375 -9.375 39.0625 -10.15625 
Q 39.0625 -5.46875 36.328125 -0.390625 
Q 44.53125 -1.171875 46.671875 -0.390625 
Q 48.828125 0.390625 48.828125 3.515625 
L 48.828125 55.859375 
L 33.59375 55.859375 
Q 28.90625 55.859375 22.265625 55.46875 
L 22.265625 62.5 
Q 28.90625 62.109375 33.59375 62.109375 
L 57.421875 62.109375 
Q 56.640625 55.859375 57.609375 48.625 
Q 58.59375 41.40625 64.453125 34.375 
Q 69.140625 37.5 74.015625 42.1875 
Q 78.90625 46.875 82.8125 52.734375 
Q 86.71875 48.828125 91.40625 44.921875 
z
M 42.96875 41.015625 
Q 41.796875 31.25 37.5 21.484375 
Q 33.203125 11.71875 26.5625 5.078125 
Q 19.921875 -1.5625 13.28125 -5.859375 
Q 10.9375 -1.953125 5.859375 1.171875 
Q 16.015625 5.859375 23.046875 13.859375 
Q 30.078125 21.875 33.59375 35.15625 
L 19.53125 35.15625 
Q 14.84375 35.15625 8.203125 34.765625 
L 8.203125 41.40625 
Q 14.84375 41.015625 19.53125 41.015625 
z
M 41.40625 82.8125 
Q 51.5625 78.125 66.40625 70.703125 
Q 63.28125 67.1875 61.328125 62.890625 
Q 53.90625 68.75 37.5 75.390625 
Q 39.84375 78.90625 41.40625 82.8125 
z
" id="SimHei-27704"/>
       <path d="M 48.4375 42.1875 
L 48.4375 50 
Q 48.4375 53.125 48.046875 63.28125 
L 57.03125 63.28125 
Q 56.640625 55.078125 56.640625 50 
L 56.640625 42.1875 
L 76.953125 42.1875 
Q 84.765625 42.1875 91.796875 42.578125 
L 91.796875 34.765625 
Q 81.25 35.15625 76.171875 35.15625 
L 56.640625 35.15625 
L 56.640625 0.390625 
Q 56.640625 -6.25 51.5625 -7.8125 
Q 46.484375 -9.375 37.109375 -10.15625 
Q 35.9375 -4.6875 33.984375 -1.171875 
Q 41.40625 -1.5625 44.921875 -0.96875 
Q 48.4375 -0.390625 48.4375 2.734375 
L 48.4375 35.15625 
L 28.90625 35.15625 
Q 17.578125 34.765625 14.453125 32.8125 
Q 13.671875 35.546875 10.546875 39.453125 
Q 13.671875 41.796875 15.03125 45.5 
Q 16.40625 49.21875 18.359375 72.265625 
Q 37.109375 72.265625 54.484375 74.796875 
Q 71.875 77.34375 79.6875 79.6875 
Q 82.421875 73.4375 84.765625 71.09375 
Q 71.875 69.53125 55.65625 67.96875 
Q 39.453125 66.40625 26.171875 65.625 
Q 24.21875 49.21875 23.046875 42.1875 
z
M 37.890625 23.4375 
Q 34.765625 20.703125 26.953125 12.296875 
Q 19.140625 3.90625 14.0625 -1.171875 
Q 12.109375 1.171875 7.8125 4.6875 
Q 13.671875 9.375 19.328125 15.421875 
Q 25 21.484375 30.46875 29.6875 
Q 34.765625 25.390625 37.890625 23.4375 
z
M 70.703125 27.34375 
Q 76.5625 22.265625 82.03125 16.984375 
Q 87.5 11.71875 93.359375 5.859375 
Q 87.890625 1.953125 85.9375 -0.390625 
Q 80.46875 6.640625 65.234375 21.484375 
Q 67.578125 23.4375 70.703125 27.34375 
z
" id="SimHei-20048"/>
       <path d="M 39.453125 31.25 
Q 44.53125 34.375 49.21875 38.671875 
L 20.703125 38.671875 
Q 15.234375 38.671875 6.640625 38.28125 
L 6.640625 45.3125 
Q 15.234375 44.921875 20.3125 44.921875 
L 39.84375 44.921875 
L 39.84375 59.375 
L 31.25 59.375 
Q 24.609375 59.375 17.578125 58.59375 
L 17.578125 66.015625 
Q 24.609375 65.625 30.859375 65.625 
L 39.84375 65.625 
Q 39.84375 74.609375 39.453125 80.46875 
L 47.65625 80.46875 
Q 47.265625 76.171875 47.265625 65.625 
Q 55.078125 65.625 67.96875 66.015625 
L 67.96875 58.984375 
Q 55.078125 59.375 47.265625 59.375 
L 47.265625 44.921875 
L 57.03125 44.921875 
Q 64.84375 53.515625 69.921875 60.15625 
Q 75 66.796875 79.296875 75 
Q 82.421875 72.265625 87.109375 69.921875 
Q 83.59375 66.40625 79.09375 60.546875 
Q 74.609375 54.6875 66.015625 44.921875 
L 81.25 44.921875 
Q 86.71875 44.921875 93.359375 45.3125 
L 93.359375 38.28125 
Q 86.71875 38.671875 81.25 38.671875 
L 60.15625 38.671875 
Q 55.46875 35.15625 49.609375 30.65625 
Q 43.75 26.171875 39.84375 23.828125 
L 39.84375 16.796875 
Q 59.765625 22.65625 73.4375 32.421875 
Q 75.390625 27.734375 78.125 25 
Q 73.828125 22.65625 62.6875 18.15625 
Q 51.5625 13.671875 39.84375 10.15625 
L 39.84375 4.296875 
Q 39.453125 -1.5625 49.609375 -1.171875 
Q 57.03125 -1.953125 64.453125 -1.171875 
Q 72.65625 -1.171875 74.796875 0.390625 
Q 76.953125 1.953125 78.515625 9.765625 
Q 81.640625 7.421875 87.109375 5.46875 
Q 83.203125 -2.734375 79.875 -4.875 
Q 76.5625 -7.03125 68.75 -7.421875 
Q 55.46875 -8.59375 41.796875 -7.421875 
Q 32.421875 -7.421875 32.421875 2.34375 
L 32.421875 19.53125 
Q 28.515625 16.796875 23.828125 14.25 
Q 19.140625 11.71875 8.984375 6.640625 
Q 7.421875 10.15625 3.90625 13.671875 
Q 8.984375 15.234375 17.96875 19.328125 
Q 26.953125 23.4375 32.421875 27.34375 
L 32.421875 31.25 
z
" id="SimHei-32769"/>
       <path d="M 83.59375 75 
Q 88.671875 75 94.921875 75.390625 
L 94.921875 68.359375 
Q 88.671875 68.75 83.59375 68.75 
L 70.703125 68.75 
L 70.703125 53.90625 
L 92.1875 53.90625 
Q 91.796875 48.046875 91.796875 41.40625 
L 91.796875 16.015625 
Q 91.796875 9.765625 88.078125 8 
Q 84.375 6.25 78.515625 5.46875 
Q 78.125 9.765625 75.390625 14.0625 
Q 85.15625 13.671875 84.375 16.796875 
L 84.375 47.65625 
L 70.703125 47.65625 
L 70.703125 5.859375 
Q 70.703125 -0.390625 71.09375 -8.984375 
L 62.890625 -8.984375 
Q 63.28125 -1.171875 63.28125 6.25 
L 63.28125 47.65625 
L 50.390625 47.65625 
L 50.390625 3.90625 
L 42.578125 3.90625 
Q 42.96875 12.109375 42.96875 18.359375 
L 42.96875 41.40625 
Q 42.96875 47.65625 42.578125 53.90625 
L 63.28125 53.90625 
L 63.28125 68.75 
L 50.78125 68.75 
Q 45.3125 68.75 40.234375 68.359375 
L 40.234375 75.390625 
Q 45.703125 75 50.78125 75 
z
M 34.765625 79.296875 
Q 34.375 75 33.59375 67.578125 
L 33.59375 32.421875 
Q 33.59375 18.75 29.484375 9.765625 
Q 25.390625 0.78125 11.71875 -9.765625 
Q 10.15625 -7.421875 4.296875 -4.296875 
Q 11.328125 -0.390625 15.421875 3.90625 
Q 19.53125 8.203125 22.453125 13.28125 
Q 25.390625 18.359375 26.171875 31.640625 
L 26.171875 67.96875 
Q 26.171875 74.21875 25.78125 80.46875 
Q 30.46875 79.6875 34.765625 79.296875 
z
M 16.40625 69.921875 
Q 15.625 65.234375 15.625 60.546875 
L 15.625 26.5625 
Q 15.625 20.703125 16.015625 13.28125 
L 7.8125 13.28125 
Q 8.203125 20.703125 8.203125 26.171875 
L 8.203125 60.9375 
Q 8.203125 64.84375 7.8125 69.921875 
L 16.40625 69.921875 
z
" id="SimHei-24072"/>
      </defs>
      <g transform="translate(690.946853 399.565938)scale(0.1 -0.1)">
       <use xlink:href="#SimHei-26446"/>
       <use x="100" xlink:href="#SimHei-27704"/>
       <use x="200" xlink:href="#SimHei-20048"/>
       <use x="300" xlink:href="#SimHei-32769"/>
       <use x="400" xlink:href="#SimHei-24072"/>
      </g>
     </g>
    </g>
    <g id="text_9">
     <!-- Channel Name -->
     <defs>
      <path d="M 43.75 1.953125 
L 35.9375 1.953125 
L 35.9375 30.078125 
Q 35.9375 34.765625 33.59375 37.5 
Q 31.25 40.234375 27.34375 40.234375 
Q 22.265625 40.234375 17.765625 34.953125 
Q 13.28125 29.6875 13.28125 21.875 
L 13.28125 1.953125 
L 5.46875 1.953125 
L 5.46875 45.703125 
L 13.28125 45.703125 
L 13.28125 37.5 
Q 16.40625 41.796875 20.109375 44.140625 
Q 23.828125 46.484375 29.6875 46.484375 
Q 36.71875 46.484375 40.234375 42.578125 
Q 43.75 38.671875 43.75 32.8125 
z
" id="SimHei-110"/>
      <path d="M 44.53125 1.953125 
L 34.765625 1.953125 
L 13.28125 50.390625 
L 12.890625 50.390625 
L 12.890625 1.953125 
L 3.90625 1.953125 
L 3.90625 68.75 
L 13.671875 68.75 
L 35.15625 20.3125 
L 35.546875 20.3125 
L 35.546875 68.75 
L 44.53125 68.75 
z
" id="SimHei-78"/>
     </defs>
     <g transform="translate(412.8 411.769063)scale(0.1 -0.1)">
      <use xlink:href="#SimHei-67"/>
      <use x="50" xlink:href="#SimHei-104"/>
      <use x="100" xlink:href="#SimHei-97"/>
      <use x="150" xlink:href="#SimHei-110"/>
      <use x="200" xlink:href="#SimHei-110"/>
      <use x="250" xlink:href="#SimHei-101"/>
      <use x="300" xlink:href="#SimHei-108"/>
      <use x="350" xlink:href="#SimHei-32"/>
      <use x="400" xlink:href="#SimHei-78"/>
      <use x="450" xlink:href="#SimHei-97"/>
      <use x="500" xlink:href="#SimHei-109"/>
      <use x="550" xlink:href="#SimHei-101"/>
     </g>
    </g>
   </g>
   <g id="matplotlib.axis_2">
    <g id="ytick_1">
     <g id="line2d_9">
      <defs>
       <path d="M 0 0 
L -3.5 0 
" id="mfe13988eca" style="stroke:#000000;stroke-width:0.8;"/>
      </defs>
      <g>
       <use style="stroke:#000000;stroke-width:0.8;" x="108" xlink:href="#mfe13988eca" y="384.48"/>
      </g>
     </g>
     <g id="text_10">
      <!-- 0 -->
      <defs>
       <path d="M 3.125 29.296875 
Q 3.90625 50 6.4375 56.046875 
Q 8.984375 62.109375 13.671875 66.015625 
Q 18.359375 69.921875 25.1875 69.921875 
Q 32.03125 69.921875 37.109375 64.25 
Q 42.1875 58.59375 43.75 50 
Q 45.3125 41.40625 44.71875 30.265625 
Q 44.140625 19.140625 40.8125 12.109375 
Q 37.5 5.078125 30.859375 2.34375 
Q 24.21875 -0.390625 17.578125 2.921875 
Q 10.9375 6.25 8.203125 11.71875 
Q 5.46875 17.1875 4.296875 23.234375 
Q 3.125 29.296875 3.90625 50 
z
M 12.890625 52.734375 
Q 10.546875 31.25 12.5 22.84375 
Q 14.453125 14.453125 18.9375 10.9375 
Q 23.4375 7.421875 28.125 9.5625 
Q 32.8125 11.71875 34.953125 18.15625 
Q 37.109375 24.609375 37.109375 32.21875 
Q 37.109375 39.84375 36.515625 46.09375 
Q 35.9375 52.34375 33 57.421875 
Q 30.078125 62.5 25.1875 62.6875 
Q 20.3125 62.890625 16.59375 57.8125 
Q 12.890625 52.734375 10.546875 31.25 
z
" id="SimHei-48"/>
      </defs>
      <g transform="translate(96 387.9175)scale(0.1 -0.1)">
       <use xlink:href="#SimHei-48"/>
      </g>
     </g>
    </g>
    <g id="ytick_2">
     <g id="line2d_10">
      <g>
       <use style="stroke:#000000;stroke-width:0.8;" x="108" xlink:href="#mfe13988eca" y="329.04"/>
      </g>
     </g>
     <g id="text_11">
      <!-- 20 -->
      <defs>
       <path d="M 4.6875 3.90625 
Q 5.078125 9.765625 10.15625 14.453125 
Q 15.234375 19.140625 23.046875 29.09375 
Q 30.859375 39.0625 33.203125 44.53125 
Q 35.546875 50 34.953125 53.90625 
Q 34.375 57.8125 31.25 60.34375 
Q 28.125 62.890625 24.015625 62.5 
Q 19.921875 62.109375 16.203125 59.375 
Q 12.5 56.640625 10.546875 51.171875 
L 3.125 52.34375 
Q 6.25 61.328125 11.125 65.421875 
Q 16.015625 69.53125 22.65625 69.921875 
Q 26.5625 70.3125 29.6875 69.71875 
Q 32.8125 69.140625 36.125 66.984375 
Q 39.453125 64.84375 41.59375 60.546875 
Q 43.75 56.25 43.15625 50.1875 
Q 42.578125 44.140625 37.109375 35.734375 
Q 31.640625 27.34375 16.015625 9.375 
L 44.140625 9.375 
L 44.140625 2.34375 
L 4.6875 2.34375 
z
" id="SimHei-50"/>
      </defs>
      <g transform="translate(91 332.4775)scale(0.1 -0.1)">
       <use xlink:href="#SimHei-50"/>
       <use x="50" xlink:href="#SimHei-48"/>
      </g>
     </g>
    </g>
    <g id="ytick_3">
     <g id="line2d_11">
      <g>
       <use style="stroke:#000000;stroke-width:0.8;" x="108" xlink:href="#mfe13988eca" y="273.6"/>
      </g>
     </g>
     <g id="text_12">
      <!-- 40 -->
      <defs>
       <path d="M 31.25 17.1875 
L 1.171875 17.1875 
L 1.171875 23.828125 
L 32.8125 69.53125 
L 38.671875 69.53125 
L 38.671875 23.828125 
L 48.046875 23.828125 
L 48.046875 17.1875 
L 38.671875 17.1875 
L 38.671875 2.34375 
L 31.25 2.34375 
z
M 31.25 23.828125 
L 31.25 54.6875 
L 9.375 23.828125 
z
" id="SimHei-52"/>
      </defs>
      <g transform="translate(91 277.0375)scale(0.1 -0.1)">
       <use xlink:href="#SimHei-52"/>
       <use x="50" xlink:href="#SimHei-48"/>
      </g>
     </g>
    </g>
    <g id="ytick_4">
     <g id="line2d_12">
      <g>
       <use style="stroke:#000000;stroke-width:0.8;" x="108" xlink:href="#mfe13988eca" y="218.16"/>
      </g>
     </g>
     <g id="text_13">
      <!-- 60 -->
      <defs>
       <path d="M 3.515625 19.53125 
Q 4.296875 30.859375 6.046875 34.765625 
Q 7.8125 38.671875 11.328125 44.53125 
L 27.34375 69.53125 
L 36.328125 69.53125 
L 19.921875 43.75 
Q 30.46875 46.484375 36.71875 42.96875 
Q 42.96875 39.453125 45.109375 34.953125 
Q 47.265625 30.46875 47.453125 25.1875 
Q 47.65625 19.921875 45.890625 14.84375 
Q 44.140625 9.765625 39.640625 5.65625 
Q 35.15625 1.5625 27.140625 1.171875 
Q 19.140625 0.78125 13.46875 4.09375 
Q 7.8125 7.421875 5.65625 13.46875 
Q 3.515625 19.53125 4.296875 30.859375 
z
M 12.5 16.015625 
Q 19.53125 8.59375 25.390625 8.203125 
Q 31.25 7.8125 35.15625 12.109375 
Q 39.0625 16.40625 39.0625 24.609375 
Q 39.0625 32.8125 34.171875 35.9375 
Q 29.296875 39.0625 23.234375 38.28125 
Q 17.1875 37.5 14.453125 32.421875 
Q 11.71875 27.34375 12.109375 21.671875 
Q 12.5 16.015625 19.53125 8.59375 
z
" id="SimHei-54"/>
      </defs>
      <g transform="translate(91 221.5975)scale(0.1 -0.1)">
       <use xlink:href="#SimHei-54"/>
       <use x="50" xlink:href="#SimHei-48"/>
      </g>
     </g>
    </g>
    <g id="ytick_5">
     <g id="line2d_13">
      <g>
       <use style="stroke:#000000;stroke-width:0.8;" x="108" xlink:href="#mfe13988eca" y="162.72"/>
      </g>
     </g>
     <g id="text_14">
      <!-- 80 -->
      <defs>
       <path d="M 2.734375 16.796875 
Q 2.734375 26.171875 5.078125 30.65625 
Q 7.421875 35.15625 12.890625 37.890625 
Q 8.203125 40.625 6.640625 43.9375 
Q 5.078125 47.265625 4.875 51.5625 
Q 4.6875 55.859375 6.046875 58.984375 
Q 7.421875 62.109375 10.15625 64.84375 
Q 12.890625 67.578125 16.203125 68.546875 
Q 19.53125 69.53125 23.4375 69.53125 
Q 27.34375 69.53125 30.46875 68.75 
Q 33.59375 67.96875 37.109375 65.421875 
Q 40.625 62.890625 42.1875 58.203125 
Q 43.75 53.515625 41.984375 47.265625 
Q 40.234375 41.015625 32.8125 37.5 
Q 39.453125 35.546875 42.1875 31.4375 
Q 44.921875 27.34375 44.921875 21.484375 
Q 44.921875 15.625 43.15625 12.109375 
Q 41.40625 8.59375 39.25 6.25 
Q 37.109375 3.90625 33.390625 2.53125 
Q 29.6875 1.171875 24.015625 1.171875 
Q 18.359375 1.171875 14.25 2.53125 
Q 10.15625 3.90625 7.421875 6.640625 
Q 4.6875 9.375 3.703125 13.078125 
Q 2.734375 16.796875 2.734375 26.171875 
z
M 10.9375 26.5625 
Q 10.546875 17.1875 12.296875 13.671875 
Q 14.0625 10.15625 18.75 9.171875 
Q 23.4375 8.203125 28.515625 9.375 
Q 33.59375 10.546875 35.546875 14.84375 
Q 37.5 19.140625 36.90625 23.4375 
Q 36.328125 27.734375 32.03125 30.65625 
Q 27.734375 33.59375 22.65625 33.203125 
Q 17.578125 32.8125 14.25 29.6875 
Q 10.9375 26.5625 10.546875 17.1875 
z
M 12.109375 56.25 
Q 12.109375 48.4375 14.84375 44.921875 
Q 17.578125 41.40625 23.4375 41.40625 
Q 29.296875 41.40625 32.21875 44.921875 
Q 35.15625 48.4375 34.953125 53.3125 
Q 34.765625 58.203125 31.4375 60.546875 
Q 28.125 62.890625 22.453125 62.5 
Q 16.796875 62.109375 14.453125 59.171875 
Q 12.109375 56.25 12.109375 48.4375 
z
" id="SimHei-56"/>
      </defs>
      <g transform="translate(91 166.1575)scale(0.1 -0.1)">
       <use xlink:href="#SimHei-56"/>
       <use x="50" xlink:href="#SimHei-48"/>
      </g>
     </g>
    </g>
    <g id="ytick_6">
     <g id="line2d_14">
      <g>
       <use style="stroke:#000000;stroke-width:0.8;" x="108" xlink:href="#mfe13988eca" y="107.28"/>
      </g>
     </g>
     <g id="text_15">
      <!-- 100 -->
      <defs>
       <path d="M 21.875 56.25 
Q 16.796875 51.171875 8.984375 46.484375 
L 8.984375 53.90625 
Q 18.75 60.546875 25 69.53125 
L 29.6875 69.53125 
L 29.6875 2.34375 
L 21.875 2.34375 
z
" id="SimHei-49"/>
      </defs>
      <g transform="translate(86 110.7175)scale(0.1 -0.1)">
       <use xlink:href="#SimHei-49"/>
       <use x="50" xlink:href="#SimHei-48"/>
       <use x="100" xlink:href="#SimHei-48"/>
      </g>
     </g>
    </g>
    <g id="ytick_7">
     <g id="line2d_15">
      <g>
       <use style="stroke:#000000;stroke-width:0.8;" x="108" xlink:href="#mfe13988eca" y="51.84"/>
      </g>
     </g>
     <g id="text_16">
      <!-- 120 -->
      <g transform="translate(86 55.2775)scale(0.1 -0.1)">
       <use xlink:href="#SimHei-49"/>
       <use x="50" xlink:href="#SimHei-50"/>
       <use x="100" xlink:href="#SimHei-48"/>
      </g>
     </g>
    </g>
    <g id="text_17">
     <!-- View Count -->
     <defs>
      <path d="M 48.046875 45.703125 
L 38.28125 1.171875 
L 30.859375 1.171875 
L 24.609375 35.15625 
L 23.828125 35.15625 
L 17.578125 1.171875 
L 10.15625 1.171875 
L 0.390625 45.703125 
L 8.59375 45.703125 
L 13.671875 16.40625 
L 14.453125 16.40625 
L 19.921875 45.703125 
L 28.515625 45.703125 
L 33.984375 16.40625 
L 34.765625 16.40625 
L 39.84375 45.703125 
z
" id="SimHei-119"/>
      <path d="M 43.75 1.953125 
L 35.9375 1.953125 
L 35.9375 10.15625 
Q 32.8125 5.859375 29.09375 3.515625 
Q 25.390625 1.171875 19.53125 1.171875 
Q 12.5 1.171875 8.984375 5.078125 
Q 5.46875 8.984375 5.46875 14.84375 
L 5.46875 45.703125 
L 13.28125 45.703125 
L 13.28125 17.578125 
Q 13.28125 12.890625 15.625 10.15625 
Q 17.96875 7.421875 21.875 7.421875 
Q 26.953125 7.421875 31.4375 12.6875 
Q 35.9375 17.96875 35.9375 25.78125 
L 35.9375 45.703125 
L 43.75 45.703125 
z
" id="SimHei-117"/>
      <path d="M 42.96875 3.125 
Q 41.015625 2.34375 38.46875 1.75 
Q 35.9375 1.171875 31.640625 1.171875 
Q 24.609375 1.171875 20.3125 5.078125 
Q 16.015625 8.984375 16.015625 16.015625 
L 16.015625 39.453125 
L 2.734375 39.453125 
L 2.734375 45.703125 
L 16.015625 45.703125 
L 16.015625 60.9375 
L 23.828125 60.9375 
L 23.828125 45.703125 
L 39.84375 45.703125 
L 39.84375 39.453125 
L 23.828125 39.453125 
L 23.828125 15.625 
Q 23.828125 12.5 25.390625 10.34375 
Q 26.953125 8.203125 31.25 8.203125 
Q 35.546875 8.203125 38.28125 8.984375 
Q 41.015625 9.765625 42.96875 10.9375 
z
" id="SimHei-116"/>
     </defs>
     <g transform="translate(80.75 243.16)rotate(-90)scale(0.1 -0.1)">
      <use xlink:href="#SimHei-86"/>
      <use x="50" xlink:href="#SimHei-105"/>
      <use x="100" xlink:href="#SimHei-101"/>
      <use x="150" xlink:href="#SimHei-119"/>
      <use x="200" xlink:href="#SimHei-32"/>
      <use x="250" xlink:href="#SimHei-67"/>
      <use x="300" xlink:href="#SimHei-111"/>
      <use x="350" xlink:href="#SimHei-117"/>
      <use x="400" xlink:href="#SimHei-110"/>
      <use x="450" xlink:href="#SimHei-116"/>
     </g>
    </g>
   </g>
   <g id="patch_11">
    <path d="M 108 384.48 
L 108 51.84 
" style="fill:none;stroke:#000000;stroke-linecap:square;stroke-linejoin:miter;stroke-width:0.8;"/>
   </g>
   <g id="patch_12">
    <path d="M 777.6 384.48 
L 777.6 51.84 
" style="fill:none;stroke:#000000;stroke-linecap:square;stroke-linejoin:miter;stroke-width:0.8;"/>
   </g>
   <g id="patch_13">
    <path d="M 108 384.48 
L 777.6 384.48 
" style="fill:none;stroke:#000000;stroke-linecap:square;stroke-linejoin:miter;stroke-width:0.8;"/>
   </g>
   <g id="patch_14">
    <path d="M 108 51.84 
L 777.6 51.84 
" style="fill:none;stroke:#000000;stroke-linecap:square;stroke-linejoin:miter;stroke-width:0.8;"/>
   </g>
   <g id="text_18">
    <!-- Channel View Count (2019)  -->
    <defs>
     <path d="M 46.484375 -3.125 
L 42.1875 -7.421875 
Q 32.421875 1.953125 27.53125 12.109375 
Q 22.65625 22.265625 22.65625 35.15625 
Q 22.65625 48.046875 27.53125 58.203125 
Q 32.421875 68.359375 42.1875 78.125 
L 46.484375 73.828125 
Q 37.5 65.234375 33 56.046875 
Q 28.515625 46.875 28.515625 35.15625 
Q 28.515625 23.4375 33 14.25 
Q 37.5 5.078125 46.484375 -3.125 
z
" id="SimHei-40"/>
     <path d="M 12.5 1.171875 
Q 21.09375 15.625 26.5625 27.34375 
Q 16.796875 25.78125 10.34375 29.875 
Q 3.90625 33.984375 2.53125 41.015625 
Q 1.171875 48.046875 2.734375 53.703125 
Q 4.296875 59.375 7.609375 63.078125 
Q 10.9375 66.796875 15.625 68.359375 
Q 20.3125 69.921875 24.015625 69.921875 
Q 27.734375 69.921875 31.640625 68.359375 
Q 35.546875 66.796875 38.671875 63.671875 
Q 41.796875 60.546875 42.96875 57.21875 
Q 44.140625 53.90625 44.140625 48.625 
Q 44.140625 43.359375 40.234375 35.15625 
Q 36.328125 26.953125 21.09375 1.171875 
z
M 9.765625 50 
Q 10.9375 39.84375 14.640625 36.515625 
Q 18.359375 33.203125 22.65625 33.59375 
Q 26.953125 33.984375 29.484375 35.9375 
Q 32.03125 37.890625 34.375 42.578125 
Q 35.9375 48.4375 35.15625 52.53125 
Q 34.375 56.640625 31.046875 59.375 
Q 27.734375 62.109375 23.828125 62.109375 
Q 21.484375 62.5 17.765625 60.9375 
Q 14.0625 59.375 11.90625 54.6875 
Q 9.765625 50 10.9375 39.84375 
z
" id="SimHei-57"/>
     <path d="M 26.171875 35.15625 
Q 26.171875 22.265625 21.28125 12.109375 
Q 16.40625 1.953125 6.640625 -7.421875 
L 2.34375 -3.125 
Q 11.328125 5.078125 15.8125 14.25 
Q 20.3125 23.4375 20.3125 35.15625 
Q 20.3125 46.875 15.8125 56.046875 
Q 11.328125 65.234375 2.34375 73.828125 
L 6.640625 78.125 
Q 16.40625 68.359375 21.28125 58.203125 
Q 26.171875 48.046875 26.171875 35.15625 
z
" id="SimHei-41"/>
    </defs>
    <g transform="translate(364.8 45.84)scale(0.12 -0.12)">
     <use xlink:href="#SimHei-67"/>
     <use x="50" xlink:href="#SimHei-104"/>
     <use x="100" xlink:href="#SimHei-97"/>
     <use x="150" xlink:href="#SimHei-110"/>
     <use x="200" xlink:href="#SimHei-110"/>
     <use x="250" xlink:href="#SimHei-101"/>
     <use x="300" xlink:href="#SimHei-108"/>
     <use x="350" xlink:href="#SimHei-32"/>
     <use x="400" xlink:href="#SimHei-86"/>
     <use x="450" xlink:href="#SimHei-105"/>
     <use x="500" xlink:href="#SimHei-101"/>
     <use x="550" xlink:href="#SimHei-119"/>
     <use x="600" xlink:href="#SimHei-32"/>
     <use x="650" xlink:href="#SimHei-67"/>
     <use x="700" xlink:href="#SimHei-111"/>
     <use x="750" xlink:href="#SimHei-117"/>
     <use x="800" xlink:href="#SimHei-110"/>
     <use x="850" xlink:href="#SimHei-116"/>
     <use x="900" xlink:href="#SimHei-32"/>
     <use x="950" xlink:href="#SimHei-40"/>
     <use x="1000" xlink:href="#SimHei-50"/>
     <use x="1050" xlink:href="#SimHei-48"/>
     <use x="1100" xlink:href="#SimHei-49"/>
     <use x="1150" xlink:href="#SimHei-57"/>
     <use x="1200" xlink:href="#SimHei-41"/>
     <use x="1250" xlink:href="#SimHei-32"/>
    </g>
   </g>
   <g id="legend_1">
    <g id="patch_15">
     <path d="M 766.6 64.84 
L 770.6 64.84 
Q 772.6 64.84 772.6 62.84 
L 772.6 58.84 
Q 772.6 56.84 770.6 56.84 
L 766.6 56.84 
Q 764.6 56.84 764.6 58.84 
L 764.6 62.84 
Q 764.6 64.84 766.6 64.84 
z
" style="fill:#ffffff;opacity:0.8;stroke:#cccccc;stroke-linejoin:miter;"/>
    </g>
   </g>
  </g>
 </g>
 <defs>
  <clipPath id="p2529669070">
   <rect height="332.64" width="669.6" x="108" y="51.84"/>
  </clipPath>
 </defs>
</svg>
